<svg id="amex" xmlns="http://www.w3.org/2000/svg" width="31.052" height="31.052" viewBox="0 0 31.052 31.052">
  <path id="Caminho_951" data-name="Caminho 951" d="M712.876,244v-8.682h7.362v2H715.26v1.358h4.859v1.967H715.26v1.334h4.978V244Z" transform="translate(-700.305 -219.083)" fill="#2e2e2e" fill-rule="evenodd"/>
  <path id="Caminho_952" data-name="Caminho 952" d="M738.549,244l4.073-4.346-4.073-4.336H741.7l2.489,2.752,2.5-2.752H749.7v.068l-3.987,4.268,3.987,4.223V244h-3.048l-2.533-2.779L741.616,244Z" transform="translate(-718.653 -219.083)" fill="#2e2e2e" fill-rule="evenodd"/>
  <g id="Grupo_495" data-name="Grupo 495">
    <path id="Caminho_953" data-name="Caminho 953" d="M771.915,246.776v-4.914l-2.289,2.446Z" transform="translate(-740.863 -223.759)" fill="#2e2e2e" fill-rule="evenodd"/>
    <path id="Caminho_954" data-name="Caminho 954" d="M668.815,178.411v31.052h31.052v-4.9h-3.655l-1.942-2.143-1.928,2.151-12.278-.026v-9.876h-3.979l4.9-11.126h4.774l1.677,3.807v-3.807h5.893l1.016,2.852,1.02-2.852h4.5v9.893h0v-15.03Z" transform="translate(-668.815 -178.411)" fill="#2e2e2e" fill-rule="evenodd"/>
  </g>
  <path id="Caminho_955" data-name="Caminho 955" d="M705,200.651l-3.852,8.675h2.642l.727-1.737h3.938l.726,1.737h2.708l-3.836-8.675Zm.331,4.991,1.155-2.762,1.154,2.762Z" transform="translate(-691.919 -194.306)" fill="#2e2e2e" fill-rule="evenodd"/>
  <path id="Caminho_956" data-name="Caminho 956" d="M738.664,209.32v-8.675l3.714.013,1.911,5.333,1.924-5.346h3.575v8.675l-2.3.02v-5.959l-2.171,5.938h-2.1L741,203.362v5.959Z" transform="translate(-718.735 -194.302)" fill="#2e2e2e" fill-rule="evenodd"/>
</svg>
