<svg id="codbarras" xmlns="http://www.w3.org/2000/svg" width="41.005" height="31.052" viewBox="0 0 41.005 31.052">
  <path id="Retângulo_40" data-name="Retângulo 40" d="M1.281,1.281v28.49H39.725V1.281H1.281M0,0H41.006V31.052H0Z" transform="translate(0 0)" fill="#2e2e2e"/>
  <rect id="Retângulo_41" data-name="Retângulo 41" width="2.212" height="24.663" transform="translate(4.78 3.121)" fill="#2e2e2e"/>
  <rect id="Retângulo_42" data-name="Retângulo 42" width="2.212" height="19.536" transform="translate(8.997 3.121)" fill="#2e2e2e"/>
  <rect id="Retângulo_43" data-name="Retângulo 43" width="2.212" height="1.656" transform="translate(8.997 25.218)" fill="#2e2e2e"/>
  <rect id="Retângulo_44" data-name="Retângulo 44" width="4.413" height="19.536" transform="translate(13.224 3.121)" fill="#2e2e2e"/>
  <rect id="Retângulo_45" data-name="Retângulo 45" width="4.413" height="1.656" transform="translate(13.224 25.218)" fill="#2e2e2e"/>
  <rect id="Retângulo_46" data-name="Retângulo 46" width="2.183" height="19.536" transform="translate(19.681 3.121)" fill="#2e2e2e"/>
  <rect id="Retângulo_47" data-name="Retângulo 47" width="2.183" height="1.656" transform="translate(19.681 25.218)" fill="#2e2e2e"/>
  <rect id="Retângulo_48" data-name="Retângulo 48" width="2.183" height="19.536" transform="translate(30.317 3.121)" fill="#2e2e2e"/>
  <rect id="Retângulo_49" data-name="Retângulo 49" width="2.183" height="24.736" transform="translate(34.571 3.121)" fill="#2e2e2e"/>
  <rect id="Retângulo_50" data-name="Retângulo 50" width="2.183" height="1.656" transform="translate(30.317 25.218)" fill="#2e2e2e"/>
  <rect id="Retângulo_51" data-name="Retângulo 51" width="4.366" height="19.536" transform="translate(23.906 3.121)" fill="#2e2e2e"/>
  <rect id="Retângulo_52" data-name="Retângulo 52" width="4.366" height="1.656" transform="translate(23.906 25.218)" fill="#2e2e2e"/>
</svg>
