<svg id="color" xmlns="http://www.w3.org/2000/svg" width="110.617" height="44.688" viewBox="0 0 110.617 44.688">
  <path id="Caminho_151" data-name="Caminho 151" d="M124.769,781.1l-7.752-18.474h2.3l5.706,13.795,5.91-13.8h2.241L125.318,781.1Zm-18.941,14.749a2.293,2.293,0,1,1-2.293,2.293,2.292,2.292,0,0,1,2.293-2.293Zm0,.941a1.352,1.352,0,1,1-1.352,1.352,1.352,1.352,0,0,1,1.352-1.352Zm-3.527-7.466a3.08,3.08,0,1,1-3.08,3.08,3.08,3.08,0,0,1,3.08-3.08Zm0,1.134a1.947,1.947,0,1,1-1.947,1.947,1.947,1.947,0,0,1,1.947-1.947ZM85.09,757.837a9.29,9.29,0,0,1,3.62.894,8.133,8.133,0,0,1,14.038,2.61,8.592,8.592,0,0,1,3.688.622,8.219,8.219,0,0,1,4.878,6.761,8.048,8.048,0,0,1-.853,4.115,8.839,8.839,0,0,1,.869,1.23,8.022,8.022,0,0,1-5.388,11.721,12.092,12.092,0,0,1-3.593-.042,6.766,6.766,0,0,1-.944,1.525,7.982,7.982,0,0,1-10.378,1.834A9.233,9.233,0,0,1,89.7,788.1a9.284,9.284,0,0,1-2.259,1.171,8.045,8.045,0,0,1-10.42-5.479,7.7,7.7,0,0,1-.23-2.534,7.884,7.884,0,0,1-4.274-2.96,8.024,8.024,0,0,1,4.368-12.418,8.547,8.547,0,0,1,1.316-4.522,7.77,7.77,0,0,1,6.891-3.52Zm3.174,2.869a1.07,1.07,0,0,0,1.693-.259,6.052,6.052,0,0,1,3.386-2.633,6.336,6.336,0,0,1,5.878,1.387,6.222,6.222,0,0,1,1.225,1.556,7.579,7.579,0,0,1,.465,1.02c.088.233.148.561.233.847a.826.826,0,0,0,.981.715c.3-.006.609-.07.87-.087a5.743,5.743,0,0,1,1.986.211,6.268,6.268,0,0,1,4.09,3.772,5.691,5.691,0,0,1-.585,5.2.788.788,0,0,0,.047,1.152,4.718,4.718,0,0,1,1.13,1.421,6.345,6.345,0,0,1,.351,5.351,6.2,6.2,0,0,1-6.35,3.666c-.509-.07-1.594-.438-1.9-.406a.775.775,0,0,0-.162.034c-.673.221-.751,1.03-1.156,1.721a6.476,6.476,0,0,1-4.1,2.9,6.371,6.371,0,0,1-5.844-2.037.976.976,0,0,0-.8-.424c-.561.029-.94.6-1.372.923a6.289,6.289,0,0,1-5.123.917,6.168,6.168,0,0,1-4.548-5.638c-.034-.562.145-1.371.09-1.715-.066-.405-.382-.673-1.016-.766a5.11,5.11,0,0,1-1.908-.748,5.834,5.834,0,0,1-2.908-5.59,6,6,0,0,1,3.942-5.29c.5-.193,1.19-.254,1.529-.407.464-.21.548-.684.439-1.355a5.894,5.894,0,0,1,.187-1.961,6.015,6.015,0,0,1,3.167-3.841,6.094,6.094,0,0,1,6.087.358ZM135.426,780.7h2.151V762.652h-2.151V780.7Zm43.806-.035h2.152V762.617h-2.152v18.047Zm-4.467-13.32,1.646-1.27a9.442,9.442,0,0,0-7.324-3.861,9.79,9.79,0,0,0-6.43,1.671,8.43,8.43,0,0,0-3.521,4.8,9.981,9.981,0,0,0-.475,3.281,9.267,9.267,0,0,0,2.377,6.013c3.387,3.743,9.608,4.1,13.593,1.146a8.287,8.287,0,0,0,1.78-1.786l-1.646-1.27a7.89,7.89,0,0,1-5.573,2.954,7.756,7.756,0,0,1-6.369-2.334,6.905,6.905,0,0,1-1.887-5.523,7.207,7.207,0,0,1,2.791-5.266,6.773,6.773,0,0,1,4.7-1.635c2.863.031,4.406,1.045,6.337,3.08Zm-33.512-4.717h.685l11.487,13.222V762.621h2.092v18.047h-.681l-11.37-13.06v13.06h-2.219l.005-18.042Z" transform="translate(-71 -755.745)" fill="#fff" fill-rule="evenodd"/>
  <path id="Caminho_152" data-name="Caminho 152" d="M1043.441,1298.438l-.971,2.248h1.944l-.973-2.248Zm0-1.606,2.78,6.35h-.789l-.793-1.873h-2.387l-.792,1.873h-.789l2.77-6.35Zm6.263,4.452a1.5,1.5,0,0,0-.35-1.035,1.312,1.312,0,0,0-1.841-.029,1.456,1.456,0,0,0-.329,1.014,1.565,1.565,0,0,0,.332,1.068,1.187,1.187,0,0,0,.941.376,1.169,1.169,0,0,0,.916-.369,1.483,1.483,0,0,0,.332-1.025Zm.634-1.92v3.751a3.267,3.267,0,0,1-.084.885,1.239,1.239,0,0,1-.275.473,1.667,1.667,0,0,1-.652.429,2.54,2.54,0,0,1-.887.142,2.089,2.089,0,0,1-1.353-.4,1.425,1.425,0,0,1-.507-1.124h.735v.05a.8.8,0,0,0,.3.665,1.327,1.327,0,0,0,.837.233,1.608,1.608,0,0,0,.669-.127.924.924,0,0,0,.424-.379.965.965,0,0,0,.124-.329,2.851,2.851,0,0,0,.038-.538v-.642a1.626,1.626,0,0,1-.58.626,1.511,1.511,0,0,1-.806.219,1.694,1.694,0,0,1-1.324-.56,2.47,2.47,0,0,1-.014-2.968,1.66,1.66,0,0,1,1.306-.548,1.593,1.593,0,0,1,.835.215,1.489,1.489,0,0,1,.567.631v-.709Zm4.03,1.478a1.1,1.1,0,0,0-.336-.779,1.187,1.187,0,0,0-.828-.273,1.117,1.117,0,0,0-1.161,1.052Zm.7.53h-3.025v.059a1.394,1.394,0,0,0,.35.99,1.188,1.188,0,0,0,.914.377,1.213,1.213,0,0,0,.692-.207,1.8,1.8,0,0,0,.547-.624l.5.333a1.911,1.911,0,0,1-1.769,1.044,1.843,1.843,0,0,1-1.41-.575,2.124,2.124,0,0,1-.538-1.511,2.067,2.067,0,0,1,.534-1.468,1.8,1.8,0,0,1,1.373-.571,1.728,1.728,0,0,1,1.342.542,2.119,2.119,0,0,1,.494,1.481v.13Zm-3.112-2.609.822-1.452h.819l.822,1.452h-.513l-.718-.955-.726.955Zm4.1,4.419v-3.818h.638v.59a1.6,1.6,0,0,1,.593-.547,1.719,1.719,0,0,1,.8-.179,1.474,1.474,0,0,1,1.055.359,1.3,1.3,0,0,1,.38,1v2.6h-.668v-2.249a1.286,1.286,0,0,0-.244-.86.946.946,0,0,0-.753-.282,1.293,1.293,0,0,0-.533.107,1.04,1.04,0,0,0-.4.3.924.924,0,0,0-.172.342,2.858,2.858,0,0,0-.053.668v1.972Zm7.689-.906v.759a2.021,2.021,0,0,1-.582.232,3.012,3.012,0,0,1-.7.077,1.888,1.888,0,0,1-1.425-.561,2.037,2.037,0,0,1-.54-1.474,2.071,2.071,0,0,1,.56-1.5,1.891,1.891,0,0,1,1.429-.583,2.871,2.871,0,0,1,.62.067,2.588,2.588,0,0,1,.569.2v.7a2.153,2.153,0,0,0-.517-.249,1.772,1.772,0,0,0-.543-.085,1.364,1.364,0,0,0-1.031.4,1.479,1.479,0,0,0-.387,1.069,1.348,1.348,0,0,0,.39.986,1.321,1.321,0,0,0,.978.4,1.66,1.66,0,0,0,.58-.1,2.506,2.506,0,0,0,.6-.33Zm.789-4.752a.476.476,0,0,1,.48-.475.453.453,0,0,1,.336.142.47.47,0,0,1,.14.342.449.449,0,0,1-.138.333.455.455,0,0,1-.337.138.474.474,0,0,1-.48-.48Zm.154,5.658v-3.818h.66v3.818Zm4.958-1.873a1.5,1.5,0,0,0-.354-1.041,1.3,1.3,0,0,0-1.837-.031,1.451,1.451,0,0,0-.33,1.014,1.558,1.558,0,0,0,.332,1.067,1.19,1.19,0,0,0,.941.376,1.175,1.175,0,0,0,.916-.365,1.468,1.468,0,0,0,.332-1.02Zm.634-1.945v3.818h-.634v-.693a1.654,1.654,0,0,1-.587.636,1.493,1.493,0,0,1-.8.219,1.684,1.684,0,0,1-1.324-.565,2.168,2.168,0,0,1-.5-1.5,2.194,2.194,0,0,1,.489-1.5,1.647,1.647,0,0,1,1.306-.557,1.566,1.566,0,0,1,.832.215,1.544,1.544,0,0,1,.569.64v-.718Zm4.628,3.135h.463a8.244,8.244,0,0,0,1.561-.1,1.7,1.7,0,0,0,.722-.336,1.958,1.958,0,0,0,.571-.808,3.37,3.37,0,0,0,0-2.261,2,2,0,0,0-.574-.8,1.722,1.722,0,0,0-.731-.344,7.938,7.938,0,0,0-1.551-.1h-.463v4.752Zm-.734.683v-6.108h1.173a8.763,8.763,0,0,1,1.833.131,2.5,2.5,0,0,1,.933.44,2.569,2.569,0,0,1,.8,1.035,4.024,4.024,0,0,1,0,2.9,2.537,2.537,0,0,1-.8,1.032,2.512,2.512,0,0,1-.911.44,7.048,7.048,0,0,1-1.593.131Zm6.008-5.658a.461.461,0,0,1,.14-.336.467.467,0,0,1,.34-.139.454.454,0,0,1,.336.142.469.469,0,0,1,.14.342.449.449,0,0,1-.138.333.456.456,0,0,1-.338.138.467.467,0,0,1-.34-.138.461.461,0,0,1-.14-.342Zm.154,5.658v-3.818h.659v3.818Zm4.958-1.9a1.5,1.5,0,0,0-.351-1.035,1.312,1.312,0,0,0-1.841-.029,1.458,1.458,0,0,0-.329,1.014,1.565,1.565,0,0,0,.332,1.068,1.188,1.188,0,0,0,.941.376,1.17,1.17,0,0,0,.916-.369,1.485,1.485,0,0,0,.332-1.025Zm.633-1.92v3.751a3.242,3.242,0,0,1-.085.885,1.233,1.233,0,0,1-.274.473,1.665,1.665,0,0,1-.652.429,2.544,2.544,0,0,1-.887.142,2.087,2.087,0,0,1-1.353-.4,1.425,1.425,0,0,1-.508-1.124h.735v.05a.8.8,0,0,0,.3.665,1.325,1.325,0,0,0,.837.233,1.606,1.606,0,0,0,.669-.127.921.921,0,0,0,.424-.379.963.963,0,0,0,.125-.329,2.849,2.849,0,0,0,.039-.538v-.642a1.636,1.636,0,0,1-.58.626,1.511,1.511,0,0,1-.806.219,1.694,1.694,0,0,1-1.324-.56,2.469,2.469,0,0,1-.014-2.968,1.66,1.66,0,0,1,1.306-.548,1.591,1.591,0,0,1,.834.215,1.482,1.482,0,0,1,.567.631v-.709Zm1.2-1.84a.46.46,0,0,1,.14-.336.466.466,0,0,1,.34-.139.454.454,0,0,1,.336.142.472.472,0,0,1,.139.342.471.471,0,0,1-.476.471.465.465,0,0,1-.34-.138.46.46,0,0,1-.14-.342Zm.154,5.658v-3.818h.659v3.818Zm2.136-3.28h-.7v-.538h.7v-1.539h.668v1.539h.7v.538h-.7v3.28h-.668v-3.28Zm5.033,1.407a1.5,1.5,0,0,0-.354-1.041,1.3,1.3,0,0,0-1.837-.031,1.451,1.451,0,0,0-.33,1.014,1.562,1.562,0,0,0,.332,1.067,1.19,1.19,0,0,0,.942.376,1.176,1.176,0,0,0,.916-.365,1.465,1.465,0,0,0,.332-1.02Zm.633-1.945v3.818h-.633v-.693a1.655,1.655,0,0,1-.587.636,1.493,1.493,0,0,1-.8.219,1.685,1.685,0,0,1-1.324-.565,2.169,2.169,0,0,1-.5-1.5,2.194,2.194,0,0,1,.488-1.5,1.648,1.648,0,0,1,1.306-.557,1.566,1.566,0,0,1,.832.215,1.542,1.542,0,0,1,.569.64v-.718Zm1.339,3.818v-6.467h.668v6.467Z" transform="translate(-986.471 -1266.478)" fill="#fff" fill-rule="evenodd"/>
</svg>
