<svg id="diners" xmlns="http://www.w3.org/2000/svg" width="35.866" height="31.003" viewBox="0 0 35.866 31.003">
  <path id="Caminho_995" data-name="Caminho 995" d="M978.025,203.266A15.532,15.532,0,0,1,962.389,187.9a15.294,15.294,0,0,1,15.636-15.636h4.019c8.475,0,16.211,6.389,16.211,15.636,0,8.456-7.735,15.366-16.211,15.366Zm.035-29.721a14.19,14.19,0,1,0,14.191,14.192A14.193,14.193,0,0,0,978.06,173.545Zm-3.221,22.584V179.343a8.987,8.987,0,0,0,0,16.786Zm12.217-8.392a9,9,0,0,0-5.777-8.4v16.791A9,9,0,0,0,987.056,187.737Z" transform="translate(-962.389 -172.263)" fill="#2e2e2e"/>
</svg>
