<svg id="elo" xmlns="http://www.w3.org/2000/svg" width="61.368" height="23.518" viewBox="0 0 61.368 23.518">
  <g id="Grupo_492" data-name="Grupo 492">
    <g id="Grupo_491" data-name="Grupo 491">
      <path id="Caminho_943" data-name="Caminho 943" d="M423.543,197.017a6.928,6.928,0,0,1,8.974,5.182l4.744-.968a11.77,11.77,0,0,0-15.252-8.806Z" transform="translate(-413.977 -191.822)" fill="#2e2e2e"/>
      <path id="Caminho_944" data-name="Caminho 944" d="M395.684,220.574l3.208-3.627a6.916,6.916,0,0,1,0-10.361l-3.208-3.627a11.759,11.759,0,0,0,0,17.615" transform="translate(-391.715 -200.006)" fill="#2e2e2e"/>
      <path id="Caminho_945" data-name="Caminho 945" d="M432.5,241.405a6.927,6.927,0,0,1-8.975,5.174l-1.537,4.593a11.777,11.777,0,0,0,15.254-8.8Z" transform="translate(-413.965 -228.258)" fill="#2e2e2e"/>
    </g>
  </g>
  <path id="Caminho_946" data-name="Caminho 946" d="M492.146,226.04a8.423,8.423,0,0,1-.494-.951,7.21,7.21,0,0,1,3.6-9.376,7.22,7.22,0,0,1,6.633.483,7.089,7.089,0,0,1,2.961,3.573c.09.211.17.437.247.629Zm4.323-7.527a3.573,3.573,0,0,0-2.166,3.793l6.511-2.8A3.456,3.456,0,0,0,496.469,218.512Zm5.156,6.1,0,0-.135-.091a3.812,3.812,0,0,1-1.76,1.473,3.419,3.419,0,0,1-3.773-.379l-.089.135s0,0,0,0l-1.652,2.471a7.079,7.079,0,0,0,1.312.719,7.167,7.167,0,0,0,8.618-2.647Z" transform="translate(-464.714 -208.946)" fill="#2e2e2e"/>
  <path id="Caminho_947" data-name="Caminho 947" d="M552.6,203.618v13.738l2.136.866-1.214,2.832-2.358-.982A2.67,2.67,0,0,1,550,219.1a3.071,3.071,0,0,1-.456-1.7V203.618Z" transform="translate(-507.698 -200.49)" fill="#2e2e2e"/>
  <g id="Grupo_493" data-name="Grupo 493" transform="translate(47.156 6.192)">
    <path id="Caminho_948" data-name="Caminho 948" d="M572.84,227.335a3.885,3.885,0,0,1,1.335-2.932l-2.191-2.443a7.178,7.178,0,0,0-.007,10.75l2.189-2.446A3.887,3.887,0,0,1,572.84,227.335Z" transform="translate(-569.56 -220.161)" fill="#2e2e2e"/>
    <path id="Caminho_949" data-name="Caminho 949" d="M590.293,248.329a3.94,3.94,0,0,1-1.234-.2l-1.047,3.112a7.182,7.182,0,0,0,9.316-5.359l-3.217-.657A3.9,3.9,0,0,1,590.293,248.329Z" transform="translate(-583.12 -237.255)" fill="#2e2e2e"/>
    <path id="Caminho_950" data-name="Caminho 950" d="M590.344,215.174a7.163,7.163,0,0,0-2.276.366l1.037,3.114a3.9,3.9,0,0,1,5.05,2.923l3.217-.653A7.181,7.181,0,0,0,590.344,215.174Z" transform="translate(-583.161 -215.174)" fill="#2e2e2e"/>
  </g>
</svg>
