<svg id="entrega" xmlns="http://www.w3.org/2000/svg" width="74" height="52" viewBox="0 0 74 52">
  <path id="Caminho_2217" data-name="Caminho 2217" d="M124.309,159.955a8.33,8.33,0,0,0,16.235,0h19.53a8.331,8.331,0,0,0,16.237,0h8.029a4.505,4.505,0,0,0,4.51-4.5V140.878a1.847,1.847,0,0,0-.824-1.536L184.8,137.2l-3.893-9.713a5.137,5.137,0,0,0-4.771-3.223H165.417v-4.309a5.543,5.543,0,0,0-5.55-5.539H120.4a5.547,5.547,0,0,0-5.55,5.539v35.016a4.989,4.989,0,0,0,5,4.985Zm43.883-6.461h0a4.624,4.624,0,1,1-3.269,1.353,4.631,4.631,0,0,1,3.269-1.353Zm-35.765,0h0a4.623,4.623,0,1,1-3.27,1.353,4.63,4.63,0,0,1,3.27-1.353Zm29.29-.6V119.954a1.848,1.848,0,0,0-1.849-1.846H120.4a1.849,1.849,0,0,0-1.85,1.846v35.016a1.294,1.294,0,0,0,1.3,1.292h4.462a8.329,8.329,0,0,1,16.235,0h19.53a8.3,8.3,0,0,1,1.642-3.373Zm3.7-24.934v22.319a8.332,8.332,0,0,1,10.895,5.987h8.029a.809.809,0,0,0,.81-.807v-7.808h-4.316a1.846,1.846,0,0,1,0-3.693h4.316v-2.09l-2.49-1.656-12.309.053h0a1.85,1.85,0,0,1-1.841-1.663l-1.068-10.645Zm5.744,0,.864,8.616h8.543l-3.092-7.713h0a1.439,1.439,0,0,0-1.336-.9Z" transform="translate(-114.851 -114.416)" fill="#fff" fill-rule="evenodd"/>
</svg>
