<svg xmlns="http://www.w3.org/2000/svg" width="11" height="21" viewBox="0 0 11 21">
  <path id="facebook" d="M55.932,57.969c.56,0,1.123.031,1.68.056.364.015.728.067,1.07.1l-.026,3.382h-.268c-.369,0-.739,0-1.108,0-.277,0-.555,0-.832.012-.893.03-1.549.366-1.595,1.485-.029.806-.049,2.586-.05,2.68.047,0,.929,0,1.816,0,.444,0,.878,0,1.18,0h.721c-.181,1.3-.347,2.545-.527,3.8H54.8l-.072,9.486H50.814l.072-9.5h-3.2l.029-3.777h3.22l0-.284c.006-.761,0-1.523.025-2.284a9.48,9.48,0,0,1,.122-1.448A4.3,4.3,0,0,1,52.8,58.853a4.914,4.914,0,0,1,2.825-.881Q55.776,57.969,55.932,57.969Z" transform="translate(-47.682 -57.969)" fill="#fff"/>
</svg>
