<svg id="Grupo_250" data-name="Grupo 250" xmlns="http://www.w3.org/2000/svg" width="89.512" height="32.56" viewBox="0 0 89.512 32.56">
  <path id="Caminho_153" data-name="Caminho 153" d="M902.063,465.413h-3.11v10.656a.367.367,0,0,1-.366.366h-2.4a.367.367,0,0,1-.366-.366V465.413h-3.129a.352.352,0,0,1-.366-.348v-1.886a.352.352,0,0,1,.366-.348h9.37a.368.368,0,0,1,.385.348v1.886a.368.368,0,0,1-.385.348" transform="translate(-836.589 -452.971)" fill="#fff"/>
  <path id="Caminho_154" data-name="Caminho 154" d="M1052.729,474.36a23.978,23.978,0,0,1-3.7.238c-2.362,0-4.449-.6-4.449-3.937v-6.079c0-3.332,2.106-3.918,4.468-3.918a23.662,23.662,0,0,1,3.678.238c.256.037.366.128.366.366v1.7a.367.367,0,0,1-.366.366h-3.861c-.86,0-1.172.293-1.172,1.245v1.666h4.886a.367.367,0,0,1,.366.366v1.74a.367.367,0,0,1-.366.366H1047.7v1.941c0,.952.311,1.245,1.172,1.245h3.861a.367.367,0,0,1,.366.366v1.7c0,.238-.11.348-.366.385" transform="translate(-977.271 -450.969)" fill="#fff"/>
  <path id="Caminho_155" data-name="Caminho 155" d="M1191.524,476.436h-2.911a.482.482,0,0,1-.476-.275l-2.524-4.007-2.287,3.916c-.128.22-.256.366-.458.366h-2.71a.242.242,0,0,1-.275-.238.339.339,0,0,1,.037-.128l3.971-6.61-4.007-6.28a.228.228,0,0,1,.238-.348h2.948c.2,0,.348.183.458.348l2.342,3.7,2.267-3.7a.594.594,0,0,1,.458-.348h2.71a.264.264,0,0,1,.274.238.261.261,0,0,1-.037.11l-3.988,6.319,4.153,6.571a.409.409,0,0,1,.055.183c0,.11-.092.183-.238.183" transform="translate(-1102.25 -452.972)" fill="#fff"/>
  <path id="Caminho_156" data-name="Caminho 156" d="M721.772,463.31a.283.283,0,0,0-.277.225l-2.659,9.84c-.037.2-.091.275-.256.275s-.22-.073-.256-.275l-2.659-9.84a.283.283,0,0,0-.277-.225h-2.617a.283.283,0,0,0-.275.347s3.247,11.281,3.282,11.393a2.755,2.755,0,0,0,2.823,1.986,2.841,2.841,0,0,0,2.821-1.983c.051-.154,3.226-11.4,3.226-11.4a.283.283,0,0,0-.275-.346Z" transform="translate(-670.423 -453.414)" fill="#fff"/>
  <path id="Caminho_157" data-name="Caminho 157" d="M194.429,333.143H166a2.926,2.926,0,0,0-2.587,4.293l2.846,5.386H161.1a1.9,1.9,0,0,0-1.677,2.783l9.148,17.312a1.9,1.9,0,0,0,3.352,0l2.485-4.677,3.118,5.9a2.926,2.926,0,0,0,5.171.006l14.25-26.823a2.847,2.847,0,0,0-2.515-4.183M181.656,344.6l-6.145,11.568a1.262,1.262,0,0,1-2.23,0l-6.086-11.518a1.262,1.262,0,0,1,1.116-1.851h12.261a1.228,1.228,0,0,1,1.085,1.8" transform="translate(-159.198 -333.143)" fill="#fff"/>
</svg>
