<svg id="Grupo_1941" data-name="Grupo 1941" xmlns="http://www.w3.org/2000/svg" width="30.639" height="24.006" viewBox="0 0 30.639 24.006">
  <path id="Caminho_214" data-name="Caminho 214" d="M357.224,768.418a3,3,0,0,0-.834,4.162l2.969-1.3,1.238-.544v0l1.209-.528a3,3,0,0,0-4.581-1.794Zm-.046,2.654c0-.052-.007-.1-.007-.157a1.717,1.717,0,0,1,3-1.133Z" transform="translate(-347.727 -758.529)" fill="#f3f3f3"/>
  <path id="Caminho_215" data-name="Caminho 215" d="M371.033,770.608v-5.522h-1.075l.008,5.675c0,.54.146.794.562.969l1.1.463h0l.421-1.1-.935-.363A.113.113,0,0,1,371.033,770.608Z" transform="translate(-355.525 -756.97)" fill="#f3f3f3"/>
  <path id="Caminho_216" data-name="Caminho 216" d="M365.622,747H340.087a2.564,2.564,0,0,0-2.551,2.576v18.858A2.564,2.564,0,0,0,340.09,771h25.533a2.563,2.563,0,0,0,2.553-2.572V749.568A2.563,2.563,0,0,0,365.622,747Zm-12.766,21.769a9.766,9.766,0,0,1,0-19.531h0a9.766,9.766,0,0,1,0,19.531Z" transform="translate(-337.536 -746.995)" fill="#f3f3f3"/>
  <path id="Caminho_217" data-name="Caminho 217" d="M359.61,777.552l-.706,1.073v0a2.975,2.975,0,0,0,3.745-.362l-.9-.921A1.754,1.754,0,0,1,359.61,777.552Z" transform="translate(-349.396 -763.729)" fill="#f3f3f3"/>
  <path id="Caminho_218" data-name="Caminho 218" d="M376.45,770.358l-.694-1.126a3.018,3.018,0,0,0,.167,4.858h0l.654-1.139a1.671,1.671,0,0,1-.192-.174A1.712,1.712,0,0,1,376.45,770.358Z" transform="translate(-358.105 -759.256)" fill="#f3f3f3"/>
  <path id="Caminho_219" data-name="Caminho 219" d="M381.848,775.027a1.713,1.713,0,0,1-2.078,1.246l-.522,1.209a3.015,3.015,0,0,0,.939.149v0a3.019,3.019,0,0,0,3.016-2.9L381.9,774.7A1.68,1.68,0,0,1,381.848,775.027Z" transform="translate(-360.688 -762.268)" fill="#f3f3f3"/>
  <path id="Caminho_220" data-name="Caminho 220" d="M379.947,767.777a3,3,0,0,0-1.134.222l.555,1.186a1.714,1.714,0,0,1,2.183,1.008l1.33-.111A3.02,3.02,0,0,0,379.947,767.777Z" transform="translate(-360.448 -758.454)" fill="#f3f3f3"/>
</svg>
