<svg xmlns="http://www.w3.org/2000/svg" width="32" height="32.001" viewBox="0 0 32 32.001">
  <g id="Grupo_1948" data-name="Grupo 1948" transform="translate(421.223 -1010.71)">
    <path id="Caminho_2160" data-name="Caminho 2160" d="M-389.223,1020.485c0-4-2.925-4-4.33-4h-.718c-.011-.011-.014-.025-.024-.036l-5.43-5.444a1,1,0,0,0-1.414,0,1,1,0,0,0,0,1.414l4.057,4.068h-16.269l4.058-4.068a1,1,0,0,0,0-1.414,1,1,0,0,0-1.414,0l-5.43,5.444c-.011.011-.014.025-.024.036h-.728c-1.4,0-4.33,0-4.33,4a4.285,4.285,0,0,0,.962,3.188,2.657,2.657,0,0,0,1.384.711l2.027,12.45c.452,2.736,1.645,5.877,6.917,5.877h9.05c5.35,0,6.278-2.569,6.872-5.672l2.427-12.654a2.655,2.655,0,0,0,1.4-.712A4.281,4.281,0,0,0-389.223,1020.485Zm-6.752,16.177c-.495,2.586-.967,4.049-4.908,4.049h-9.05c-3.573,0-4.494-1.478-4.943-4.2l-1.958-12.023,23.194,0Zm4.38-14.409c-.246.245-.876.242-1.61.234l-23.688,0-.349,0c-.732.008-1.363.011-1.61-.234-.138-.138-.371-.55-.371-1.768,0-1.844.569-2,2.33-2h23.34c1.761,0,2.33.156,2.33,2C-391.223,1021.7-391.456,1022.115-391.6,1022.253Z" fill="#170d65"/>
    <path id="Caminho_2161" data-name="Caminho 2161" d="M-408.583,1028.711a1,1,0,0,0-1,1v5.325a1,1,0,0,0,1,1,1,1,0,0,0,1-1v-5.325A1,1,0,0,0-408.583,1028.711Z" fill="#170d65"/>
    <path id="Caminho_2162" data-name="Caminho 2162" d="M-401.683,1028.711a1,1,0,0,0-1,1v5.325a1,1,0,0,0,1,1,1,1,0,0,0,1-1v-5.325A1,1,0,0,0-401.683,1028.711Z" fill="#170d65"/>
  </g>
</svg>
