<svg xmlns="http://www.w3.org/2000/svg" width="23.105" height="16.246" viewBox="0 0 23.105 16.246"><defs><style>.a{fill:#acb7af;}</style></defs><g transform="translate(0)"><path class="a" d="M23.673,7.042A2.9,2.9,0,0,0,21.63,4.986C19.828,4.5,12.6,4.5,12.6,4.5s-7.225,0-9.027.486A2.9,2.9,0,0,0,1.533,7.042a30.455,30.455,0,0,0-.483,5.6,30.455,30.455,0,0,0,.483,5.6A2.86,2.86,0,0,0,3.576,20.26c1.8.486,9.027.486,9.027.486s7.225,0,9.027-.486a2.86,2.86,0,0,0,2.043-2.023,30.456,30.456,0,0,0,.483-5.6,30.455,30.455,0,0,0-.483-5.6ZM10.24,16.075V9.2l6.039,3.436L10.24,16.075Z" transform="translate(-1.05 -4.5)"/></g></svg>