<svg id="itau-neg" xmlns="http://www.w3.org/2000/svg" width="31.052" height="31.052" viewBox="0 0 31.052 31.052">
  <path id="Caminho_1028" data-name="Caminho 1028" d="M68.574,64.344c-.918.131-1.574.525-1.574,1.268,0,.656.437,1.006,1.137,1.006a1.707,1.707,0,0,0,1.531-.962v-.044s0-.087.044-.087a1.211,1.211,0,0,0,.044-.394V64.3h-.481A3.76,3.76,0,0,0,68.574,64.344Z" transform="translate(-52.567 -42.039)" fill="#2e2e2e"/>
  <path id="Caminho_1029" data-name="Caminho 1029" d="M59.891,13.4H39.161A5.17,5.17,0,0,0,34,18.561v20.73a5.17,5.17,0,0,0,5.161,5.161h20.73a5.17,5.17,0,0,0,5.161-5.161V18.6A5.18,5.18,0,0,0,59.891,13.4ZM38.986,39.335H36.58V28.97h2.405ZM59.191,28.97h2.274l-2.056,2.1H57.7ZM45.152,39.291a2.948,2.948,0,0,1-1.312.219,2.421,2.421,0,0,1-1.881-.743,3.412,3.412,0,0,1-.656-2.318V33.3H40.21V31.55H41.3V28.97h2.318v2.58h1.487V33.3H43.622v2.755c0,.962.175,1.487,1.05,1.487a.891.891,0,0,0,.481-.087Zm8.266.044H51.45l-.262-.787h-.044a3.15,3.15,0,0,1-2.405,1.006,2.436,2.436,0,0,1-2.668-2.362c0-2.012,1.924-3.018,5.073-3.018v-.087c0-.35-.306-1.093-1.706-1.093a5.167,5.167,0,0,0-2.318.612l-.437-1.531a6.544,6.544,0,0,1,3.193-.743c2.668,0,3.586,1.531,3.586,3.411v4.592Zm9.053,0H60.547l-.306-1.093a1.417,1.417,0,0,1-.35.394,1.653,1.653,0,0,1-.525.394,2.926,2.926,0,0,1-.743.306,3.506,3.506,0,0,1-1.006.131,3.352,3.352,0,0,1-1.181-.175,2.605,2.605,0,0,1-.918-.612,3.025,3.025,0,0,1-.612-1.05,5.381,5.381,0,0,1-.219-1.531V31.55h2.362v4.111c0,1.225.437,1.924,1.4,1.924a1.514,1.514,0,0,0,1.443-1.006,1.572,1.572,0,0,0,.087-.481V31.55h2.405v7.785Z" transform="translate(-34 -13.4)" fill="#2e2e2e"/>
</svg>
