<svg id="parcelamento" xmlns="http://www.w3.org/2000/svg" width="75" height="50" viewBox="0 0 75 50">
  <path id="União_2" data-name="União 2" d="M4.459,50A4.454,4.454,0,0,1,0,45.548V4.452A4.458,4.458,0,0,1,4.459,0H70.54A4.454,4.454,0,0,1,75,4.452v41.1A4.458,4.458,0,0,1,70.54,50Zm-.827-4.454a.827.827,0,0,0,.827.825H70.54a.826.826,0,0,0,.827-.825V24.352H3.633Zm0-24.821H71.367V12.6H3.633ZM3.875,3.869a.83.83,0,0,0-.242.583v4.52H71.367V4.452a.826.826,0,0,0-.827-.825H4.459A.833.833,0,0,0,3.875,3.869Zm7.62,38.882a1.815,1.815,0,0,1-1.816-1.813V31.991a1.817,1.817,0,0,1,1.816-1.814H29.629a1.814,1.814,0,0,1,1.816,1.814v8.946a1.815,1.815,0,0,1-1.816,1.813Zm1.816-3.627h14.5V33.8h-14.5Z" transform="translate(0)" fill="#fff"/>
</svg>
