<svg xmlns="http://www.w3.org/2000/svg" width="35.995" height="36" viewBox="0 0 35.995 36">
  <g id="Grupo_1951" data-name="Grupo 1951" transform="translate(-29.223 -105.263)">
    <path id="Caminho_244" data-name="Caminho 244" d="M-128.455,985.837a5.47,5.47,0,0,1,7.735,0l6.857,6.861h-.649a5.254,5.254,0,0,0-3.739,1.545l-5.4,5.4a1,1,0,0,1-1.419,0l-5.42-5.42a5.24,5.24,0,0,0-3.739-1.55h-1.063Zm7.735,32.8a5.471,5.471,0,0,1-7.735,0l-6.839-6.839h1.063a5.239,5.239,0,0,0,3.739-1.55l5.42-5.42a1.029,1.029,0,0,1,1.419,0l5.4,5.4a5.241,5.241,0,0,0,3.739,1.549h.649Zm12.529-12.529-4.145,4.14a.792.792,0,0,0-.293-.058h-1.883a3.718,3.718,0,0,1-2.617-1.081l-5.4-5.4a2.653,2.653,0,0,0-3.663,0l-5.42,5.42a3.722,3.722,0,0,1-2.617,1.086h-2.316a.826.826,0,0,0-.279.054l-4.158-4.158a5.471,5.471,0,0,1,0-7.735l4.158-4.163a.734.734,0,0,0,.279.059h2.316a3.719,3.719,0,0,1,2.617,1.081l5.42,5.42a2.583,2.583,0,0,0,1.834.757,2.58,2.58,0,0,0,1.829-.757l5.4-5.4a3.722,3.722,0,0,1,2.617-1.086h1.883a.792.792,0,0,0,.293-.058l4.145,4.145h0A5.471,5.471,0,0,1-108.191,1006.105Z" transform="translate(171.808 -878.973)" fill="#f3f3f3"/>
  </g>
</svg>
