<svg xmlns="http://www.w3.org/2000/svg" width="20.091" height="19.999" viewBox="0 0 20.091 19.999">
  <path id="Caminho_2140" data-name="Caminho 2140" d="M-406.482,1016.745a8.671,8.671,0,0,0-8.764,8.578,8.672,8.672,0,0,0,8.578,8.765h.186a8.584,8.584,0,0,0,4.113-1.016,2.173,2.173,0,0,0,.32.322l2.48,2.477a2.527,2.527,0,0,0,1.813.847,2.532,2.532,0,0,0,1.007-.177,2.572,2.572,0,0,0,.853-.561,2.473,2.473,0,0,0,.56-.855,2.609,2.609,0,0,0,.18-1.007,2.556,2.556,0,0,0-.24-.995,2.467,2.467,0,0,0-.607-.82l-2.48-2.477a2.522,2.522,0,0,0-.393-.323,8.576,8.576,0,0,0,1.086-4.113,8.679,8.679,0,0,0-8.672-8.67Zm0,2.478a6.244,6.244,0,0,1,6.193,6.3,6.241,6.241,0,0,1-1.633,4.16l-.08.074a3.044,3.044,0,0,0-.32.322,6.215,6.215,0,0,1-8.778-.446,6.215,6.215,0,0,1,.446-8.778,6.214,6.214,0,0,1,4.145-1.6Z" transform="translate(415.247 -1016.72)" fill="#170d65"/>
</svg>
