<svg xmlns="http://www.w3.org/2000/svg" width="66" height="66" viewBox="0 0 66 66">
  <g id="desconto" transform="translate(0)">
    <path id="Caminho_2242" data-name="Caminho 2242" d="M154.452,61.683l-3.091-2.551a3.454,3.454,0,0,0-5.6,2.056l-.689,3.848L141.3,63.684h0a3.456,3.456,0,0,0-4.566,3.865l.679,3.8h-3.965a3.457,3.457,0,0,0-2.98,5.208l1.94,3.308-3.678,1.316A3.459,3.459,0,0,0,127.7,87.1l2.971,2.454L127.7,92.007a3.458,3.458,0,0,0,1.034,5.921l3.678,1.318-1.94,3.306a3.457,3.457,0,0,0,2.98,5.207h3.965l-.679,3.8a3.455,3.455,0,0,0,4.566,3.865l3.771-1.349.689,3.846h0a3.455,3.455,0,0,0,5.6,2.057l3.091-2.551,2.008,3.422a3.455,3.455,0,0,0,5.96,0l2.008-3.422,3.091,2.551a3.456,3.456,0,0,0,5.6-2.057l.689-3.846,3.771,1.349a3.455,3.455,0,0,0,4.566-3.865l-.679-3.8h3.966a3.457,3.457,0,0,0,2.979-5.207l-1.94-3.306,3.678-1.318h0a3.458,3.458,0,0,0,1.034-5.921l-2.971-2.454,2.971-2.454a3.46,3.46,0,0,0-1.034-5.923l-3.678-1.316,1.94-3.308a3.457,3.457,0,0,0-2.98-5.207h-3.965l.679-3.8a3.456,3.456,0,0,0-4.566-3.865l-3.771,1.351-.689-3.848h0a3.454,3.454,0,0,0-5.6-2.056l-3.091,2.551L162.42,58.26a3.455,3.455,0,0,0-5.96,0Zm4.988-1.642,2,3.415a3.453,3.453,0,0,0,5.179.917l3.084-2.545.689,3.839a3.455,3.455,0,0,0,4.566,2.645l3.762-1.348-.679,3.787h0a3.459,3.459,0,0,0,3.4,4.068h3.958l-1.937,3.3h0a3.457,3.457,0,0,0,1.815,5.006l3.669,1.314-2.964,2.448a3.459,3.459,0,0,0,0,5.334l2.964,2.447-3.669,1.314a3.459,3.459,0,0,0-1.815,5.006l1.937,3.3h-3.958a3.459,3.459,0,0,0-3.4,4.069l.679,3.787-3.762-1.348a3.457,3.457,0,0,0-4.566,2.645l-.689,3.839-3.084-2.545a3.456,3.456,0,0,0-5.179.917l-2,3.415-2-3.415a3.456,3.456,0,0,0-5.179-.917l-3.084,2.545-.689-3.839a3.457,3.457,0,0,0-4.566-2.645l-3.762,1.348.679-3.787h0a3.458,3.458,0,0,0-3.4-4.068h-3.958l1.937-3.3h0a3.459,3.459,0,0,0-1.815-5.006l-3.669-1.314,2.964-2.447a3.459,3.459,0,0,0,0-5.334l-2.964-2.448,3.669-1.314a3.458,3.458,0,0,0,1.815-5.006l-1.937-3.3h3.958a3.459,3.459,0,0,0,3.4-4.068l-.679-3.787,3.762,1.348h0a3.455,3.455,0,0,0,4.566-2.645l.689-3.839,3.084,2.545a3.453,3.453,0,0,0,5.179-.917Zm12.671,32.629a6.767,6.767,0,1,0,1.978,4.781A6.756,6.756,0,0,0,172.111,92.669ZM168.473,78.06,147.952,98.589a1.736,1.736,0,1,0,2.454,2.455l20.521-20.529a1.736,1.736,0,1,0-2.454-2.455Zm1.184,17.064a3.286,3.286,0,1,1-2.325-.963,3.289,3.289,0,0,1,2.325.963ZM156.326,76.876a6.765,6.765,0,1,0,1.979,4.781A6.756,6.756,0,0,0,156.326,76.876Zm-2.454,2.455a3.286,3.286,0,1,1-2.324-.963,3.289,3.289,0,0,1,2.324.963Z" transform="translate(-126.44 -56.553)" fill="#fff" fill-rule="evenodd"/>
  </g>
</svg>
