<svg xmlns="http://www.w3.org/2000/svg" width="32.802" height="36.057" viewBox="0 0 32.802 36.057">
  <g id="Icon_feather-package" data-name="Icon feather-package" transform="translate(-2.894 -1.453)">
    <path id="Caminho_2173" data-name="Caminho 2173" d="M26.045,14.847,11.25,6.315" transform="translate(0.648 0.318)" fill="none" stroke="#fff" stroke-linecap="round" stroke-linejoin="round" stroke-width="3"/>
    <path id="Caminho_2174" data-name="Caminho 2174" d="M34.091,26.015V12.863a3.288,3.288,0,0,0-1.644-2.844L20.939,3.444a3.288,3.288,0,0,0-3.288,0L6.144,10.019A3.288,3.288,0,0,0,4.5,12.863V26.015a3.288,3.288,0,0,0,1.644,2.844l11.508,6.576a3.288,3.288,0,0,0,3.288,0l11.507-6.576a3.288,3.288,0,0,0,1.644-2.844Z" transform="translate(0 0)" fill="none" stroke="#fff" stroke-linecap="round" stroke-linejoin="round" stroke-width="3"/>
    <path id="Caminho_2175" data-name="Caminho 2175" d="M4.9,10.44l14.351,8.3,14.351-8.3" transform="translate(0.039 0.714)" fill="none" stroke="#fff" stroke-linecap="round" stroke-linejoin="round" stroke-width="3"/>
    <path id="Caminho_2176" data-name="Caminho 2176" d="M18,34.571V18" transform="translate(1.295 1.439)" fill="none" stroke="#fff" stroke-linecap="round" stroke-linejoin="round" stroke-width="3"/>
  </g>
</svg>
