<svg xmlns="http://www.w3.org/2000/svg" width="32" height="32.03" viewBox="0 0 32 32.03">
  <g id="Grupo_1947" data-name="Grupo 1947" transform="translate(436.874 -996.27)">
    <path id="Caminho_2158" data-name="Caminho 2158" d="M-421.091,1014.438a.832.832,0,0,0,.158-.006.568.568,0,0,1,.117,0,.986.986,0,0,0,.122.007h.036a5.947,5.947,0,0,0,5.7-5.7,5.881,5.881,0,0,0-1.581-4.249,5.879,5.879,0,0,0-4.122-1.886,5.937,5.937,0,0,0-6.135,5.7A5.93,5.93,0,0,0-421.091,1014.438Zm.216-9.841.144,0a3.9,3.9,0,0,1,2.731,1.25,3.9,3.9,0,0,1,1.046,2.814,3.94,3.94,0,0,1-3.712,3.775,2.427,2.427,0,0,0-.417,0,3.928,3.928,0,0,1-3.711-4.061A3.928,3.928,0,0,1-420.875,1004.6Z" fill="#170d65"/>
    <path id="Caminho_2159" data-name="Caminho 2159" d="M-404.874,1012.27a16.018,16.018,0,0,0-16-16,16.018,16.018,0,0,0-16,16,15.941,15.941,0,0,0,5.126,11.7.805.805,0,0,0,.089.105c.1.092.209.171.312.26q.28.244.571.476c.235.187.473.363.714.534.15.106.3.21.453.31.314.208.633.4.958.583.09.051.179.1.27.15.412.222.83.423,1.255.606l.048.021a15.831,15.831,0,0,0,6.2,1.283,15.83,15.83,0,0,0,6.2-1.283l.051-.022c.424-.183.841-.383,1.252-.6.092-.048.181-.1.271-.15.325-.183.644-.376.959-.583.153-.1.3-.2.451-.309q.363-.257.715-.535c.195-.154.384-.313.571-.476.1-.089.211-.167.312-.26a.805.805,0,0,0,.089-.105A15.941,15.941,0,0,0-404.874,1012.27Zm-30,0a14.015,14.015,0,0,1,14-14,14.015,14.015,0,0,1,14,14,13.928,13.928,0,0,1-3.451,9.175,6.489,6.489,0,0,0-2.578-2.835,15.582,15.582,0,0,0-15.925,0,6.474,6.474,0,0,0-2.594,2.84A13.929,13.929,0,0,1-434.874,1012.27Zm22.955,10.748c-.119.1-.244.188-.365.283-.237.185-.474.371-.722.54-.068.047-.138.087-.206.132-.316.207-.638.408-.971.59-.025.014-.051.026-.075.04a13.924,13.924,0,0,1-6.616,1.667,13.913,13.913,0,0,1-6.607-1.663l-.087-.046c-.33-.18-.647-.378-.96-.584-.072-.047-.145-.089-.216-.137-.247-.169-.481-.353-.716-.536-.123-.1-.249-.185-.37-.286-.016-.014-.031-.03-.048-.044a4.5,4.5,0,0,1,2.065-2.645,13.6,13.6,0,0,1,13.892,0,4.5,4.5,0,0,1,2.051,2.642C-411.887,1022.988-411.9,1023-411.919,1023.018Z" fill="#170d65"/>
  </g>
</svg>
