<svg xmlns="http://www.w3.org/2000/svg" width="314.066" height="24.371" viewBox="0 0 314.066 24.371">
  <g id="Grupo_1945" data-name="Grupo 1945" transform="translate(-673.967 -3570.799)">
    <path id="Icon_awesome-cc-visa" data-name="Icon awesome-cc-visa" d="M25.358,13s.41,2.007.5,2.427h-1.8c.178-.48.863-2.346.863-2.346-.011.016.178-.491.286-.8l.151.723Zm5.712-8.161V23.827a2.59,2.59,0,0,1-2.589,2.589H2.589A2.59,2.59,0,0,1,0,23.827V4.839A2.59,2.59,0,0,1,2.589,2.25H28.481A2.59,2.59,0,0,1,31.071,4.839ZM8.226,18.389l3.409-8.372H9.343l-2.12,5.718-.232-1.16-.755-3.851a.9.9,0,0,0-.982-.707H1.764l-.038.167A8.56,8.56,0,0,1,4,11.107l1.931,7.282Zm5.092.011,1.359-8.383H12.509L11.155,18.4h2.163Zm7.546-2.74c.011-.955-.572-1.683-1.818-2.282-.761-.383-1.224-.642-1.224-1.036.011-.356.394-.723,1.246-.723a3.717,3.717,0,0,1,1.613.318l.194.092.3-1.812a5.387,5.387,0,0,0-1.942-.356c-2.141,0-3.646,1.144-3.657,2.773-.016,1.2,1.079,1.872,1.9,2.276.836.41,1.122.68,1.122,1.041-.011.561-.68.82-1.3.82a4.321,4.321,0,0,1-2.034-.448l-.286-.135-.3,1.883a6.619,6.619,0,0,0,2.417.448C19.365,18.524,20.849,17.4,20.865,15.66Zm7.617,2.74-1.748-8.383H25.056a1.067,1.067,0,0,0-1.133.7L20.7,18.4h2.276s.372-1.036.453-1.257h2.783c.065.3.259,1.257.259,1.257Z" transform="translate(673.967 3568.549)" fill="#f3f3f3"/>
    <path id="Icon_awesome-cc-mastercard" data-name="Icon awesome-cc-mastercard" d="M26.049,22.673a.6.6,0,1,1-.6-.631A.6.6,0,0,1,26.049,22.673ZM9.283,22.041a.633.633,0,1,0,.588.631A.6.6,0,0,0,9.283,22.041Zm6.338-.016a.5.5,0,0,0-.512.469h1.03A.5.5,0,0,0,15.622,22.025Zm5.815.016a.632.632,0,1,0,.6.631A.6.6,0,0,0,21.437,22.041Zm5.712,1.408c0,.016.016.027.016.059,0,.016-.016.027-.016.059a.189.189,0,0,0-.027.043.07.07,0,0,1-.059.027c-.016.016-.027.016-.059.016a.107.107,0,0,1-.059-.016c-.016,0-.027-.016-.043-.027s-.027-.027-.027-.043a.1.1,0,0,1-.016-.059c0-.027,0-.043.016-.059a.1.1,0,0,1,.027-.059.189.189,0,0,1,.043-.027A.1.1,0,0,1,27,23.347c.027,0,.043,0,.059.016s.043.016.059.027S27.133,23.422,27.149,23.449Zm-.119.076c.027,0,.027-.016.043-.016a.066.066,0,0,0,0-.086c-.016,0-.027-.016-.059-.016h-.086v.189h.043v-.076h.016l.059.076h.043l-.059-.07ZM31.071,4.91V23.9a2.59,2.59,0,0,1-2.589,2.589H2.589A2.59,2.59,0,0,1,0,23.9V4.91A2.59,2.59,0,0,1,2.589,2.32H28.481A2.59,2.59,0,0,1,31.071,4.91ZM3.452,12.44a7.467,7.467,0,0,0,11.6,6.225,8.044,8.044,0,0,1,0-12.434,7.468,7.468,0,0,0-11.6,6.209Zm12.083,5.869a7.468,7.468,0,0,0,0-11.732A7.468,7.468,0,0,0,15.535,18.309ZM7.859,22.424a.756.756,0,0,0-.793-.793.771.771,0,0,0-.69.351.715.715,0,0,0-.658-.351.685.685,0,0,0-.572.291v-.237H4.7v1.98h.442c0-1.019-.135-1.629.485-1.629.55,0,.442.55.442,1.629H6.5c0-.987-.135-1.629.485-1.629.55,0,.442.539.442,1.629H7.87V22.424Zm2.422-.739H9.855v.237a.777.777,0,0,0-.631-.291,1.043,1.043,0,0,0,0,2.082.748.748,0,0,0,.631-.291v.248h.426Zm2.185,1.381c0-.809-1.235-.442-1.235-.82,0-.307.642-.259,1-.059l.178-.351c-.507-.329-1.629-.324-1.629.442s1.235.448,1.235.809c0,.34-.728.313-1.117.043l-.189.34C11.312,23.881,12.466,23.795,12.466,23.066Zm1.91.5-.119-.367c-.2.113-.658.237-.658-.221v-.9h.707v-.4H13.6v-.6h-.442v.6h-.41v.394h.41v.9c0,.949.933.777,1.219.588Zm.717-.723h1.483c0-.874-.4-1.219-.939-1.219a.971.971,0,0,0-.982,1.041,1.076,1.076,0,0,0,1.823.766l-.2-.324C15.854,23.455,15.217,23.422,15.093,22.845Zm3.188-1.16a.633.633,0,0,0-.82.237v-.237h-.442v1.98h.442V22.548a.45.45,0,0,1,.69-.453l.129-.41Zm.572.987c0-.615.626-.815,1.117-.453l.2-.351a1.068,1.068,0,1,0,0,1.618l-.2-.351C19.473,23.487,18.853,23.277,18.853,22.673Zm3.6-.987h-.442v.237a.981.981,0,1,0,0,1.5v.248h.442V21.685Zm1.818,0a.648.648,0,0,0-.82.237v-.237h-.426v1.98h.426V22.548a.453.453,0,0,1,.69-.453l.129-.41Zm2.174-.8h-.426v1.041a.981.981,0,1,0,0,1.5v.248h.426Zm.41-4.051v.248H26.9v-.248H27v-.043H26.75v.043h.1Zm.356,6.678a.164.164,0,0,0-.016-.086c-.016-.016-.027-.043-.043-.059s-.043-.027-.059-.043c-.027,0-.059-.016-.086-.016a.573.573,0,0,1-.076.016.281.281,0,0,0-.059.043.084.084,0,0,0-.043.059.164.164,0,0,0-.016.086.157.157,0,0,0,.016.076.084.084,0,0,0,.043.059.187.187,0,0,0,.059.043A.147.147,0,0,0,27,23.7a.164.164,0,0,0,.086-.016c.016-.016.043-.027.059-.043s.027-.043.043-.059A.157.157,0,0,0,27.208,23.509Zm.173-6.727h-.076l-.086.189-.086-.189h-.076v.291H27.1v-.221l.086.189h.059l.076-.189v.221h.059Zm.237-4.342a7.467,7.467,0,0,0-11.6-6.214,8.044,8.044,0,0,1,0,12.434,7.467,7.467,0,0,0,11.6-6.219Z" transform="translate(721.233 3568.479)" fill="#f3f3f3"/>
    <path id="Icon_awesome-cc-diners-club" data-name="Icon awesome-cc-diners-club" d="M12.93,4.834a9.483,9.483,0,1,0,9.483,9.483A9.486,9.486,0,0,0,12.93,4.834ZM10.778,19.916a6.007,6.007,0,0,1,0-11.214Zm4.3.016V8.7a6.019,6.019,0,0,1,0,11.231ZM28.481,2.25H2.589A2.59,2.59,0,0,0,0,4.839V23.827a2.59,2.59,0,0,0,2.589,2.589H28.481a2.59,2.59,0,0,0,2.589-2.589V4.839A2.59,2.59,0,0,0,28.481,2.25Zm-10.7,22.44H12.914A10.4,10.4,0,0,1,2.46,14.43,10.228,10.228,0,0,1,12.914,3.976h4.871A10.579,10.579,0,0,1,28.611,14.43C28.611,20.078,23.449,24.69,17.785,24.69Z" transform="translate(768.499 3568.549)" fill="#f3f3f3"/>
    <path id="Icon_awesome-cc-amex" data-name="Icon awesome-cc-amex" d="M17.533,9.575c0-.885-.761-.993-1.478-.993l-2.109-.016V12.3h.885V10.951H15.8c.993,0,.782.556.8,1.354h.9v-.728c0-.5-.081-.815-.593-.993a1.062,1.062,0,0,0,.631-1.009Zm-1.586.61H14.831V9.36h1.133c.275,0,.577.054.577.4s-.286.426-.593.426Zm-.9,4.828H12.2l-1.133,1.23-1.106-1.23H6.378l-.005,3.738H9.9l1.149-1.241,1.1,1.241h1.737l.005-1.257c1.02,0,2.659.248,2.659-1.257,0-.933-.663-1.224-1.5-1.224Zm-5.6,2.951H7.257v-.744H9.215v-.761H7.257v-.674H9.507l.966,1.09ZM13,18.406,11.632,16.89,13,15.412Zm2.039-1.672H13.892v-.949h1.16c.3,0,.55.124.55.453,0,.345-.248.5-.566.5Zm-1.7-7.374V8.572H10.337V12.31h2.994v-.771h-2.1v-.744h2.039v-.761H11.233V9.36ZM31.067,14.3h-.011Zm-10.5,1.721c0-.885-.761-1.009-1.462-1.009H16.983l-.005,3.738h.9l.005-1.365h.949c.593,0,.8.108.8.744l-.005.62h.9l.005-.744c0-.48-.1-.815-.593-.993a1.067,1.067,0,0,0,.642-.993Zm-1.575.6H17.878v-.841h1.133c.275,0,.577.054.577.4,0,.372-.291.442-.593.442ZM9.674,12.31V8.572H8.185L7.122,11.107,5.952,8.572H4.49v3.544L2.974,8.572H1.653L.051,12.31h.966l.345-.825H3.222l.345.825H5.391V9.386L6.686,12.31h.788L8.768,9.386V12.31Zm-7.994-1.6.6-1.489.62,1.489Zm25.752,8.571v-.243c-.583.3-.21.243-8.453.243,0-1.359.005-1.289,0-1.359-.092-.005-.173-.005-.507-.005,0,.966-.005.367-.005,1.365H16.33c0-.653.005-.825.005-1.575a3.5,3.5,0,0,1-1.85.334c0,.793-.005.448-.005,1.241H11.842c-.275-.307-.146-.167-.831-.939-.173.189-.69.75-.868.939H5.72V14.3H10.2c.27.3.151.167.836.928.173-.189.658-.723.847-.928h3.129a2.576,2.576,0,0,1,1.311.3v-.3c2.929,0,3.468-.076,4.083.275V14.3h4.218v.28c.615-.372,1.057-.28,3.5-.28v.27c.556-.318.9-.28,2.929-.27V4.839A2.59,2.59,0,0,0,28.467,2.25H2.575A2.59,2.59,0,0,0-.014,4.839v5.923C.493,9.581,1.049,8.281,1.232,7.855H3.373c.232.545.086.2.485,1.138V7.855H6.34c.156.334.6,1.295.75,1.618.313-.734.545-1.289.68-1.618h5.556c0-.005.62,0,.626,0,2.357.011,2.891-.043,3.474.286V7.855h2.152v.5a2.58,2.58,0,0,1,1.656-.5h1.489c0,.027.1.016.124.016h1.748c.227.529.14.324.475,1.111V7.871H27.4c.264.432-.054-.1.6.993V7.871h2.152v4.963H27.917c-.291-.485-.076-.119-.712-1.181v1.181H24.357c-.345-.8-.005-.016-.356-.825H22.976c-.227.539-.119.28-.345.825H21.185a2.508,2.508,0,0,1-1.6-.48v.48H16c-.016-.75-.005-1.338-.005-1.338a3.85,3.85,0,0,0-.529-.011v1.354H8.153v-.615c-.135.3-.146.318-.275.615H6.286c-.216-.48-.156-.345-.275-.615v.615H3.158c-.227-.545-.119-.286-.345-.825H1.777c-.227.539-.119.28-.345.825H0V23.827a2.59,2.59,0,0,0,2.589,2.589h25.9a2.59,2.59,0,0,0,2.589-2.589V18.95C30.388,19.4,29.309,19.279,27.432,19.279ZM29.39,15.8h1.624v-.788H29.239a1.132,1.132,0,0,0-1.284,1.117c0,1.78,2.3.69,2.3,1.478,0,.275-.232.345-.453.345H28.079l-.005.8H29.8a1.414,1.414,0,0,0,1.214-.48V16.879c-.566-.744-2.12-.07-2.12-.728,0-.313.248-.351.5-.351Zm-3.075,2.147H24.578l-.005.8H26.31c.8,0,1.413-.3,1.413-1.187,0-1.791-2.314-.6-2.314-1.419,0-.3.264-.345.5-.345h1.64v-.788H25.754a1.119,1.119,0,0,0-1.268,1.117c0,1.78,2.3.674,2.3,1.478-.005.291-.254.345-.475.345Zm-2.276-2.163v-.771H21.061l-.005,3.738h2.978l.005-.771-2.082-.016v-.744H24v-.761H21.962v-.674ZM21,9.953c-.016.011-.076.119-.076.41,0,.324.049.415.059.426a.425.425,0,0,0,.183.027l.394-.912c-.059,0-.113-.005-.167-.005C21.093,9.9,21.018,9.937,21,9.953Zm1.1-.566H22.1Zm-.874-.82c-1.268,0-1.834.647-1.834,1.9,0,1.2.55,1.834,1.78,1.834H22.21l.345-.825h1.85l.356.825h1.818v-2.8l1.683,2.8h1.273V8.583h-.912v2.595l-1.57-2.595H25.689v3.528l-1.5-3.528H22.847l-1.268,2.94h-.4c-.717,0-.868-.437-.868-1.073,0-1.284.847-1.079,1.785-1.063v-.82Zm2.271.653.6,1.489h-1.23Zm-5.454-.647V12.31h.912V8.572Z" transform="translate(816.193 3568.549)" fill="#f3f3f3"/>
    <g id="Grupo_1941" data-name="Grupo 1941" transform="translate(863.394 3570.799)">
      <path id="Caminho_214" data-name="Caminho 214" d="M357.224,768.418a3,3,0,0,0-.834,4.162l2.969-1.3,1.238-.544v0l1.209-.528a3,3,0,0,0-4.581-1.794Zm-.046,2.654c0-.052-.007-.1-.007-.157a1.717,1.717,0,0,1,3-1.133Z" transform="translate(-347.727 -758.529)" fill="#f3f3f3"/>
      <path id="Caminho_215" data-name="Caminho 215" d="M371.033,770.608v-5.522h-1.075l.008,5.675c0,.54.146.794.562.969l1.1.463h0l.421-1.1-.935-.363A.113.113,0,0,1,371.033,770.608Z" transform="translate(-355.525 -756.97)" fill="#f3f3f3"/>
      <path id="Caminho_216" data-name="Caminho 216" d="M365.622,747H340.087a2.564,2.564,0,0,0-2.551,2.576v18.858A2.564,2.564,0,0,0,340.09,771h25.533a2.563,2.563,0,0,0,2.553-2.572V749.568A2.563,2.563,0,0,0,365.622,747Zm-12.766,21.769a9.766,9.766,0,0,1,0-19.531h0a9.766,9.766,0,0,1,0,19.531Z" transform="translate(-337.536 -746.995)" fill="#f3f3f3"/>
      <path id="Caminho_217" data-name="Caminho 217" d="M359.61,777.552l-.706,1.073v0a2.975,2.975,0,0,0,3.745-.362l-.9-.921A1.754,1.754,0,0,1,359.61,777.552Z" transform="translate(-349.396 -763.729)" fill="#f3f3f3"/>
      <path id="Caminho_218" data-name="Caminho 218" d="M376.45,770.358l-.694-1.126a3.018,3.018,0,0,0,.167,4.858h0l.654-1.139a1.671,1.671,0,0,1-.192-.174A1.712,1.712,0,0,1,376.45,770.358Z" transform="translate(-358.105 -759.256)" fill="#f3f3f3"/>
      <path id="Caminho_219" data-name="Caminho 219" d="M381.848,775.027a1.713,1.713,0,0,1-2.078,1.246l-.522,1.209a3.015,3.015,0,0,0,.939.149v0a3.019,3.019,0,0,0,3.016-2.9L381.9,774.7A1.68,1.68,0,0,1,381.848,775.027Z" transform="translate(-360.688 -762.268)" fill="#f3f3f3"/>
      <path id="Caminho_220" data-name="Caminho 220" d="M379.947,767.777a3,3,0,0,0-1.134.222l.555,1.186a1.714,1.714,0,0,1,2.183,1.008l1.33-.111A3.02,3.02,0,0,0,379.947,767.777Z" transform="translate(-360.448 -758.454)" fill="#f3f3f3"/>
    </g>
    <g id="Grupo_1942" data-name="Grupo 1942" transform="translate(910.033 3570.799)">
      <path id="Caminho_234" data-name="Caminho 234" d="M-149.953,893.3c-.127,0-.183.04-.183.148s.055.155.183.155.18-.039.18-.147S-149.827,893.3-149.953,893.3Z" transform="translate(173.979 -877.536)" fill="#f3f3f3"/>
      <path id="Caminho_235" data-name="Caminho 235" d="M-156.507,893.256c-.153,0-.2.067-.215.166h.429C-156.3,893.313-156.353,893.256-156.507,893.256Z" transform="translate(173.319 -877.541)" fill="#f3f3f3"/>
      <path id="Caminho_236" data-name="Caminho 236" d="M-155.165,893.457c0,.139.064.2.189.2a1.25,1.25,0,0,0,.248-.037v-.33a.567.567,0,0,0-.194-.033C-155.087,893.256-155.165,893.312-155.165,893.457Z" transform="translate(173.475 -877.541)" fill="#f3f3f3"/>
      <path id="Caminho_237" data-name="Caminho 237" d="M-157.958,893.256c-.165,0-.239.053-.239.2s.073.2.239.2.239-.052.239-.2S-157.792,893.256-157.958,893.256Z" transform="translate(173.172 -877.541)" fill="#f3f3f3"/>
      <path id="Caminho_238" data-name="Caminho 238" d="M-148.328,893.287c-.11,0-.153.04-.162.113h.321C-148.172,893.322-148.217,893.287-148.328,893.287Z" transform="translate(174.144 -877.538)" fill="#f3f3f3"/>
      <path id="Caminho_239" data-name="Caminho 239" d="M-151.964,893.531c0,.042.028.065.1.065a.963.963,0,0,0,.2-.029v-.092a1.712,1.712,0,0,0-.172-.008C-151.93,893.467-151.964,893.487-151.964,893.531Z" transform="translate(173.796 -877.52)" fill="#f3f3f3"/>
      <path id="Caminho_240" data-name="Caminho 240" d="M-152.478,893.408h-.186v.168h.187c.128,0,.175-.014.175-.085S-152.368,893.408-152.478,893.408Z" transform="translate(173.726 -877.526)" fill="#f3f3f3"/>
      <path id="Caminho_241" data-name="Caminho 241" d="M-152.336,893.246c0-.075-.063-.084-.176-.084h-.152v.171h.153C-152.386,893.333-152.336,893.317-152.336,893.246Z" transform="translate(173.726 -877.55)" fill="#f3f3f3"/>
      <path id="Caminho_242" data-name="Caminho 242" d="M-155.552,893.256c-.153,0-.2.067-.215.166h.429C-155.342,893.313-155.4,893.256-155.552,893.256Z" transform="translate(173.415 -877.541)" fill="#f3f3f3"/>
      <path id="Caminho_243" data-name="Caminho 243" d="M-153.952,893.258a1.173,1.173,0,0,0-.248.039v.328a.549.549,0,0,0,.194.034c.165,0,.243-.056.243-.2S-153.827,893.258-153.952,893.258Z" transform="translate(173.572 -877.541)" fill="#f3f3f3"/>
      <path id="Caminho_244" data-name="Caminho 244" d="M-143.331,878.972h-25.891a2.59,2.59,0,0,0-2.587,2.593v18.986a2.589,2.589,0,0,0,2.589,2.591h25.887a2.59,2.59,0,0,0,2.59-2.59V881.563A2.591,2.591,0,0,0-143.331,878.972Zm-22.8,8.4a1.336,1.336,0,0,1,1.889,0l1.674,1.676h-.158a1.283,1.283,0,0,0-.913.377l-1.319,1.319a.245.245,0,0,1-.347,0l-1.324-1.324a1.28,1.28,0,0,0-.913-.378h-.26Zm1.889,8.009a1.336,1.336,0,0,1-1.889,0l-1.67-1.67h.26a1.279,1.279,0,0,0,.913-.378l1.324-1.323a.251.251,0,0,1,.347,0l1.319,1.319a1.28,1.28,0,0,0,.913.378h.158Zm3.06-3.06-1.012,1.011a.193.193,0,0,0-.072-.014h-.46a.908.908,0,0,1-.639-.264l-1.319-1.319a.648.648,0,0,0-.894,0l-1.324,1.324a.909.909,0,0,1-.639.265h-.565a.2.2,0,0,0-.068.013l-1.015-1.016a1.336,1.336,0,0,1,0-1.889l1.015-1.017a.179.179,0,0,0,.068.014h.565a.908.908,0,0,1,.639.264l1.324,1.324a.631.631,0,0,0,.448.185.63.63,0,0,0,.447-.185l1.319-1.318a.909.909,0,0,1,.639-.265h.46a.193.193,0,0,0,.072-.014l1.012,1.012h0A1.336,1.336,0,0,1-161.185,892.324Zm3.523.369a.167.167,0,0,1,.167-.166h2.257a1.638,1.638,0,0,0,1.636-1.636v-1.152a1.634,1.634,0,0,0-1.629-1.633l-1.6,0a1.638,1.638,0,0,0-1.636,1.635v5.411a.167.167,0,0,1-.166.167.167.167,0,0,1-.167-.167v-5.411a1.971,1.971,0,0,1,1.969-1.968l1.6,0a1.969,1.969,0,0,1,1.963,1.966v1.152a1.972,1.972,0,0,1-1.969,1.969h-2.257A.167.167,0,0,1-157.662,892.693Zm.547,2.405a.4.4,0,0,1-.191.043.694.694,0,0,1-.2-.031v.193h-.055v-.652h.045l0,.029a1.33,1.33,0,0,1,.259-.042.255.255,0,0,1,.168.049.247.247,0,0,1,.075.2A.227.227,0,0,1-157.115,895.1Zm.734-.008a.36.36,0,0,1-.213.051.365.365,0,0,1-.213-.051.23.23,0,0,1-.085-.2.233.233,0,0,1,.085-.2.364.364,0,0,1,.213-.051.366.366,0,0,1,.213.051.232.232,0,0,1,.085.2A.232.232,0,0,1-156.381,895.09Zm.833.037h-.051l-.184-.4h0l-.182.4h-.049l-.2-.477h.062l.164.4h0l.177-.4h.052l.183.4h0l.16-.4h.059Zm.556-.039a1.438,1.438,0,0,0,.246-.027v.049a1.449,1.449,0,0,1-.251.03.289.289,0,0,1-.2-.053.252.252,0,0,1-.075-.2.247.247,0,0,1,.089-.2.314.314,0,0,1,.186-.048.338.338,0,0,1,.191.046.244.244,0,0,1,.081.22h-.488C-155.211,895-155.179,895.089-154.993,895.089Zm.724-.4h-.013a.776.776,0,0,0-.224.039v.4h-.056v-.477h.045l0,.029a.851.851,0,0,1,.238-.042h.007Zm.327.4a1.439,1.439,0,0,0,.246-.027v.049a1.449,1.449,0,0,1-.251.03.289.289,0,0,1-.2-.053.252.252,0,0,1-.075-.2.25.25,0,0,1,.089-.2.314.314,0,0,1,.186-.048.336.336,0,0,1,.191.046.241.241,0,0,1,.083.22h-.49C-154.16,895-154.127,895.089-153.942,895.089Zm.936.039h-.045l0-.029a1.334,1.334,0,0,1-.259.042.25.25,0,0,1-.168-.05.247.247,0,0,1-.075-.2.223.223,0,0,1,.106-.208.391.391,0,0,1,.193-.044.694.694,0,0,1,.2.031v-.219h.055Zm.96-.03a.4.4,0,0,1-.191.043.66.66,0,0,1-.213-.036l0,.023h-.037v-.679h.055v.228a1.394,1.394,0,0,1,.253-.04.254.254,0,0,1,.168.049.247.247,0,0,1,.075.2A.227.227,0,0,1-152.045,895.1Zm-.251-7h-.693a.167.167,0,0,1-.166-.167.167.167,0,0,1,.166-.166h.693a.907.907,0,0,1,.907.906v4.041a.167.167,0,0,1-.166.167.167.167,0,0,1-.167-.167v-4.041A.574.574,0,0,0-152.3,888.1Zm.7,7.083a.193.193,0,0,1-.2.13.518.518,0,0,1-.069-.005v-.052a.672.672,0,0,0,.072.005.146.146,0,0,0,.15-.1l.018-.037-.25-.477h.065l.213.413h0l.2-.413h.063Zm.49-8.19-.315.314a.2.2,0,0,1-.282,0l-.315-.314a.2.2,0,0,1,0-.283l.314-.315a.2.2,0,0,1,.283,0l.315.315A.2.2,0,0,1-151.108,887Zm.8,8.086a.556.556,0,0,1-.3.045h-.283v-.648h.276a.528.528,0,0,1,.275.042.138.138,0,0,1,.066.129.142.142,0,0,1-.1.144v0c.084.019.138.062.138.153A.141.141,0,0,1-150.307,895.082Zm.768.045h-.106l0-.029a1.164,1.164,0,0,1-.26.042.245.245,0,0,1-.144-.035.134.134,0,0,1-.053-.115.132.132,0,0,1,.08-.129.426.426,0,0,1,.178-.026c.051,0,.118,0,.173.007v-.008c0-.075-.048-.1-.183-.1-.052,0-.116,0-.176.008v-.1c.067-.005.143-.01.2-.01a.407.407,0,0,1,.222.044.178.178,0,0,1,.066.164Zm.755,0h-.132v-.264c0-.087-.045-.118-.124-.118a.963.963,0,0,0-.195.03v.352h-.133v-.477h.109l0,.031a1.1,1.1,0,0,1,.255-.044.236.236,0,0,1,.164.049.186.186,0,0,1,.052.149Zm.608-.018a1.169,1.169,0,0,1-.232.031.267.267,0,0,1-.177-.051.243.243,0,0,1-.076-.2.232.232,0,0,1,.1-.2.385.385,0,0,1,.21-.047c.055,0,.109,0,.168.01v.1c-.048,0-.106-.008-.152-.008-.127,0-.187.04-.187.148s.045.147.149.147a1.115,1.115,0,0,0,.2-.024Zm.623-.02a.4.4,0,0,1-.229.051.4.4,0,0,1-.23-.051.221.221,0,0,1-.089-.2.222.222,0,0,1,.089-.2.4.4,0,0,1,.23-.051.4.4,0,0,1,.229.051.222.222,0,0,1,.089.2A.225.225,0,0,1-147.553,895.09Zm1.169.01a1.6,1.6,0,0,1-.311.041.358.358,0,0,1-.232-.067.333.333,0,0,1-.1-.271.317.317,0,0,1,.131-.275.5.5,0,0,1,.274-.061c.072,0,.145,0,.226.011v.116c-.068-.005-.154-.01-.22-.01-.184,0-.262.07-.262.219s.073.22.208.22a1.467,1.467,0,0,0,.288-.038Zm.4-.059a1.594,1.594,0,0,0,.254-.025v.095a1.9,1.9,0,0,1-.287.031.313.313,0,0,1-.2-.053.248.248,0,0,1-.076-.2.24.24,0,0,1,.089-.2.355.355,0,0,1,.209-.051.367.367,0,0,1,.207.048c.077.054.084.136.085.235h-.454C-146.152,894.993-146.113,895.04-145.979,895.04Zm1,.087h-.133v-.264c0-.087-.044-.118-.123-.118a.963.963,0,0,0-.195.03v.352h-.133v-.477h.109l0,.031a1.079,1.079,0,0,1,.255-.044.234.234,0,0,1,.163.049.183.183,0,0,1,.053.149Zm.517,0a.736.736,0,0,1-.139.018.173.173,0,0,1-.154-.068.243.243,0,0,1-.035-.144v-.179h-.1v-.1h.1l.014-.144h.118v.144h.188v.1h-.188v.153a.239.239,0,0,0,.013.091.085.085,0,0,0,.087.044.644.644,0,0,0,.1-.009Zm.488-.372h-.046a.774.774,0,0,0-.187.024v.353h-.133v-.477h.109l0,.031a.8.8,0,0,1,.237-.044h.017Zm.618.376h-.106l0-.029a1.164,1.164,0,0,1-.259.042.246.246,0,0,1-.145-.035.137.137,0,0,1-.053-.115.134.134,0,0,1,.08-.129.431.431,0,0,1,.178-.026c.051,0,.118,0,.174.007v-.008c0-.075-.049-.1-.184-.1-.052,0-.116,0-.176.008v-.1c.067-.005.143-.01.206-.01a.4.4,0,0,1,.221.044.178.178,0,0,1,.066.164Zm.3,0h-.134v-.679h.134Zm-.086-2.285h-.559a1.489,1.489,0,0,1-1.061-.439l-1.6-1.6a.369.369,0,0,0-.26-.107.364.364,0,0,0-.259.107l-1.608,1.607a1.485,1.485,0,0,1-1.059.44h-.688a.166.166,0,0,1-.166-.167.166.166,0,0,1,.166-.166h.688a1.159,1.159,0,0,0,.824-.342l1.607-1.607a.7.7,0,0,1,.5-.2.7.7,0,0,1,.5.2l1.6,1.6a1.158,1.158,0,0,0,.824.341h.559a.166.166,0,0,1,.166.167A.165.165,0,0,1-143.133,892.842Zm0-4.737h-.559a1.158,1.158,0,0,0-.824.341l-1.6,1.6a.7.7,0,0,1-.5.2.7.7,0,0,1-.5-.2l-1.607-1.607a1.158,1.158,0,0,0-.824-.341h-.688a.166.166,0,0,1-.166-.167.165.165,0,0,1,.166-.166h.688a1.484,1.484,0,0,1,1.059.439l1.608,1.607a.36.36,0,0,0,.259.107.364.364,0,0,0,.26-.107l1.6-1.6a1.493,1.493,0,0,1,1.061-.439h.559a.166.166,0,0,1,.166.167A.166.166,0,0,1-143.133,888.1Z" transform="translate(171.808 -878.972)" fill="#f3f3f3"/>
      <path id="Caminho_245" data-name="Caminho 245" d="M-146.34,893.531c0,.042.029.065.1.065a.984.984,0,0,0,.2-.029v-.092c-.056-.006-.113-.008-.173-.008C-146.306,893.467-146.34,893.487-146.34,893.531Z" transform="translate(174.36 -877.52)" fill="#f3f3f3"/>
      <path id="Caminho_246" data-name="Caminho 246" d="M-158.56,893.258a1.173,1.173,0,0,0-.248.039v.329a.566.566,0,0,0,.193.033c.166,0,.244-.056.244-.2S-158.435,893.258-158.56,893.258Z" transform="translate(173.11 -877.541)" fill="#f3f3f3"/>
    </g>
    <path id="Caminho_2157" data-name="Caminho 2157" d="M306.2,437.193H280.307a2.591,2.591,0,0,0-2.587,2.593v18.986a2.589,2.589,0,0,0,2.587,2.591H306.2a2.589,2.589,0,0,0,2.59-2.59V439.784A2.591,2.591,0,0,0,306.2,437.193Zm-24.327,18.883H280.61V440.6h1.261Zm1.437-1.558h-.474V440.6h.474Zm1.078,0h-.474V440.6h.474Zm1.142,0h-.237V440.6h.237Zm1.057,0h-.475V440.6h.475Zm1.077,0h-.474V440.6h.474Zm1.143,0h-.237V440.6h.237Zm2.421,0h-1.753V440.6h1.753Zm1.178,0h-.474V440.6h.474Zm1.078,0h-.475V440.6h.475Zm1.142,0h-.237V440.6h.237Zm1.056,0h-.474V440.6h.474Zm1.078,0h-.474V440.6h.474Zm1.142,0h-.237V440.6h.237Zm2.422,0h-1.754V440.6h1.754Zm1.221,0h-.475V440.6h.475Zm1.077,0h-.474V440.6h.474Zm1.143,0h-.238V440.6h.238Zm1.056,0h-.475V440.6h.475Zm1.077,1.558h-.474V440.6h.474Z" transform="translate(679.247 3133.807)" fill="#f3f3f3"/>
  </g>
</svg>
