<svg xmlns="http://www.w3.org/2000/svg" width="18.954" height="18.954" viewBox="0 0 18.954 18.954"><defs><style>.a{fill:#acb7af;}</style></defs><path class="a" d="M17.6,2.25H1.35A1.36,1.36,0,0,0,0,3.617v16.22A1.36,1.36,0,0,0,1.35,21.2H17.6a1.363,1.363,0,0,0,1.354-1.367V3.617A1.363,1.363,0,0,0,17.6,2.25ZM5.728,18.5H2.919V9.451H5.733V18.5ZM4.324,8.215A1.629,1.629,0,1,1,5.953,6.586,1.63,1.63,0,0,1,4.324,8.215ZM16.259,18.5H13.449V14.1c0-1.049-.021-2.4-1.46-2.4-1.464,0-1.688,1.142-1.688,2.323V18.5H7.493V9.451h2.695v1.235h.038a2.959,2.959,0,0,1,2.661-1.46c2.843,0,3.372,1.874,3.372,4.311Z" transform="translate(0 -2.25)"/></svg>