<svg xmlns="http://www.w3.org/2000/svg" width="31.071" height="24.166" viewBox="0 0 31.071 24.166">
  <path id="Icon_awesome-cc-diners-club" data-name="Icon awesome-cc-diners-club" d="M12.93,4.834a9.483,9.483,0,1,0,9.483,9.483A9.486,9.486,0,0,0,12.93,4.834ZM10.778,19.916a6.007,6.007,0,0,1,0-11.214Zm4.3.016V8.7a6.019,6.019,0,0,1,0,11.231ZM28.481,2.25H2.589A2.59,2.59,0,0,0,0,4.839V23.827a2.59,2.59,0,0,0,2.589,2.589H28.481a2.59,2.59,0,0,0,2.589-2.589V4.839A2.59,2.59,0,0,0,28.481,2.25Zm-10.7,22.44H12.914A10.4,10.4,0,0,1,2.46,14.43,10.228,10.228,0,0,1,12.914,3.976h4.871A10.579,10.579,0,0,1,28.611,14.43C28.611,20.078,23.449,24.69,17.785,24.69Z" transform="translate(0 -2.25)" fill="#f3f3f3"/>
</svg>
