<svg xmlns="http://www.w3.org/2000/svg" width="31.071" height="24.166" viewBox="0 0 31.071 24.166">
  <path id="Icon_awesome-cc-mastercard" data-name="Icon awesome-cc-mastercard" d="M26.049,22.673a.6.6,0,1,1-.6-.631A.6.6,0,0,1,26.049,22.673ZM9.283,22.041a.633.633,0,1,0,.588.631A.6.6,0,0,0,9.283,22.041Zm6.338-.016a.5.5,0,0,0-.512.469h1.03A.5.5,0,0,0,15.622,22.025Zm5.815.016a.632.632,0,1,0,.6.631A.6.6,0,0,0,21.437,22.041Zm5.712,1.408c0,.016.016.027.016.059,0,.016-.016.027-.016.059a.189.189,0,0,0-.027.043.07.07,0,0,1-.059.027c-.016.016-.027.016-.059.016a.107.107,0,0,1-.059-.016c-.016,0-.027-.016-.043-.027s-.027-.027-.027-.043a.1.1,0,0,1-.016-.059c0-.027,0-.043.016-.059a.1.1,0,0,1,.027-.059.189.189,0,0,1,.043-.027A.1.1,0,0,1,27,23.347c.027,0,.043,0,.059.016s.043.016.059.027S27.133,23.422,27.149,23.449Zm-.119.076c.027,0,.027-.016.043-.016a.066.066,0,0,0,0-.086c-.016,0-.027-.016-.059-.016h-.086v.189h.043v-.076h.016l.059.076h.043l-.059-.07ZM31.071,4.91V23.9a2.59,2.59,0,0,1-2.589,2.589H2.589A2.59,2.59,0,0,1,0,23.9V4.91A2.59,2.59,0,0,1,2.589,2.32H28.481A2.59,2.59,0,0,1,31.071,4.91ZM3.452,12.44a7.467,7.467,0,0,0,11.6,6.225,8.044,8.044,0,0,1,0-12.434,7.468,7.468,0,0,0-11.6,6.209Zm12.083,5.869a7.468,7.468,0,0,0,0-11.732A7.468,7.468,0,0,0,15.535,18.309ZM7.859,22.424a.756.756,0,0,0-.793-.793.771.771,0,0,0-.69.351.715.715,0,0,0-.658-.351.685.685,0,0,0-.572.291v-.237H4.7v1.98h.442c0-1.019-.135-1.629.485-1.629.55,0,.442.55.442,1.629H6.5c0-.987-.135-1.629.485-1.629.55,0,.442.539.442,1.629H7.87V22.424Zm2.422-.739H9.855v.237a.777.777,0,0,0-.631-.291,1.043,1.043,0,0,0,0,2.082.748.748,0,0,0,.631-.291v.248h.426Zm2.185,1.381c0-.809-1.235-.442-1.235-.82,0-.307.642-.259,1-.059l.178-.351c-.507-.329-1.629-.324-1.629.442s1.235.448,1.235.809c0,.34-.728.313-1.117.043l-.189.34C11.312,23.881,12.466,23.795,12.466,23.066Zm1.91.5-.119-.367c-.2.113-.658.237-.658-.221v-.9h.707v-.4H13.6v-.6h-.442v.6h-.41v.394h.41v.9c0,.949.933.777,1.219.588Zm.717-.723h1.483c0-.874-.4-1.219-.939-1.219a.971.971,0,0,0-.982,1.041,1.076,1.076,0,0,0,1.823.766l-.2-.324C15.854,23.455,15.217,23.422,15.093,22.845Zm3.188-1.16a.633.633,0,0,0-.82.237v-.237h-.442v1.98h.442V22.548a.45.45,0,0,1,.69-.453l.129-.41Zm.572.987c0-.615.626-.815,1.117-.453l.2-.351a1.068,1.068,0,1,0,0,1.618l-.2-.351C19.473,23.487,18.853,23.277,18.853,22.673Zm3.6-.987h-.442v.237a.981.981,0,1,0,0,1.5v.248h.442V21.685Zm1.818,0a.648.648,0,0,0-.82.237v-.237h-.426v1.98h.426V22.548a.453.453,0,0,1,.69-.453l.129-.41Zm2.174-.8h-.426v1.041a.981.981,0,1,0,0,1.5v.248h.426Zm.41-4.051v.248H26.9v-.248H27v-.043H26.75v.043h.1Zm.356,6.678a.164.164,0,0,0-.016-.086c-.016-.016-.027-.043-.043-.059s-.043-.027-.059-.043c-.027,0-.059-.016-.086-.016a.573.573,0,0,1-.076.016.281.281,0,0,0-.059.043.084.084,0,0,0-.043.059.164.164,0,0,0-.016.086.157.157,0,0,0,.016.076.084.084,0,0,0,.043.059.187.187,0,0,0,.059.043A.147.147,0,0,0,27,23.7a.164.164,0,0,0,.086-.016c.016-.016.043-.027.059-.043s.027-.043.043-.059A.157.157,0,0,0,27.208,23.509Zm.173-6.727h-.076l-.086.189-.086-.189h-.076v.291H27.1v-.221l.086.189h.059l.076-.189v.221h.059Zm.237-4.342a7.467,7.467,0,0,0-11.6-6.214,8.044,8.044,0,0,1,0,12.434,7.467,7.467,0,0,0,11.6-6.219Z" transform="translate(0 -2.32)" fill="#f3f3f3"/>
</svg>
