<svg xmlns="http://www.w3.org/2000/svg" width="15.865" height="15.08" viewBox="0 0 15.865 15.08">
  <path id="Icon_ionic-md-star-outline" data-name="Icon ionic-md-star-outline" d="M19.662,10.25l-5.7-.49L11.73,4.5,9.5,9.76l-5.7.49L8.124,14l-1.3,5.579,4.9-2.958,4.9,2.958L15.335,14Zm-7.284,5.3-.649-.392-.649.392L8.725,16.968l.624-2.682.172-.738-.572-.5-2.081-1.8,2.743-.236.754-.065.3-.7L11.73,7.722,12.8,10.25l.3.7.754.065,2.743.236-2.081,1.8-.572.5.171.738.623,2.682Z" transform="translate(-3.797 -4.5)" fill="#ff9e00"/>
</svg>
