<svg xmlns="http://www.w3.org/2000/svg" width="21" height="21" viewBox="0 0 21 21">
  <g id="ig" transform="translate(-1624.642 -19.826)">
    <g id="Grupo_175" data-name="Grupo 175" transform="translate(1639.522 23.478)">
      <path id="Caminho_2" data-name="Caminho 2" d="M111.881,65.82h.015a1.249,1.249,0,0,1,1.247,1.265,1.273,1.273,0,0,1-1.274,1.257,1.261,1.261,0,0,1,.012-2.522Z" transform="translate(-110.622 -65.82)" fill="#fff"/>
    </g>
    <g id="Grupo_176" data-name="Grupo 176" transform="translate(1624.642 19.826)">
      <path id="Caminho_3" data-name="Caminho 3" d="M109.534,65.7c.156,1.653.257,9.463-.229,11.294a5.375,5.375,0,0,1-4.635,4.2,51.872,51.872,0,0,1-5.791.234,35.74,35.74,0,0,1-5.834-.31,5.269,5.269,0,0,1-4.18-4.581c-.282-1.771-.312-10,.2-11.791a5.356,5.356,0,0,1,4.575-4.082,40.9,40.9,0,0,1,5.262-.237c1.96,0,3.936.053,5.126.118a5.784,5.784,0,0,1,3.833,1.569A5.528,5.528,0,0,1,109.534,65.7ZM107.514,76.2a75.322,75.322,0,0,0,.129-10.315,3.533,3.533,0,0,0-3.144-3.349,48.314,48.314,0,0,0-5.249-.2c-2.09,0-4.171.056-5.087.156a3.6,3.6,0,0,0-3.354,3.163,71.627,71.627,0,0,0-.073,10.6,3.405,3.405,0,0,0,2.591,2.969,32.481,32.481,0,0,0,5.646.31c2.2,0,4.364-.07,5.178-.159a3.585,3.585,0,0,0,3.362-3.18" transform="translate(-88.662 -60.432)" fill="#fff"/>
    </g>
    <g id="Grupo_177" data-name="Grupo 177" transform="translate(1629.758 24.945)">
      <path id="Caminho_4" data-name="Caminho 4" d="M101.641,67.984a5.337,5.337,0,0,1,5.338,5.39,5.436,5.436,0,0,1-5.428,5.381,5.331,5.331,0,0,1-5.338-5.389A5.426,5.426,0,0,1,101.641,67.984Zm-.078,8.865a3.517,3.517,0,0,0,3.511-3.45,3.447,3.447,0,0,0-3.422-3.517h-.031a3.516,3.516,0,0,0-3.511,3.45,3.452,3.452,0,0,0,3.421,3.517h.032" transform="translate(-96.213 -67.984)" fill="#fff"/>
    </g>
  </g>
</svg>
