<svg xmlns="http://www.w3.org/2000/svg" width="40.409" height="40.503" viewBox="0 0 40.409 40.503"><defs><style>.a{fill:none;stroke:#fff;stroke-linecap:round;stroke-linejoin:round;stroke-width:2px;}</style></defs><g transform="translate(1 1.351)"><path class="a" d="M2355.84,476.306a1.074,1.074,0,0,1-.74.63c-.308.065-.383.361-.581.531-.229.2-.006.388,0,.582a6.968,6.968,0,0,1-.941,4.284c-.145.208-.372.425-.125.746.083.108.025.322-.139.472a7.768,7.768,0,0,0-.963,1.2,1.1,1.1,0,0,0-.263.8c.009.085.057.207-.05.261-.469.236-.828.63-1.271.893-.35.207-.7-.042-1.049-.112-.127-.026-.3-.076-.365-.028-.458.325-1.119.232-1.488.729a.282.282,0,0,1-.21.111c-1.161.151-1.78,1.141-2.615,1.775a1.338,1.338,0,0,0-.185,1.337,1.232,1.232,0,0,1-.236,1.243,10.238,10.238,0,0,0-1.3,1.981,3.724,3.724,0,0,1-1.366,1.5c-.437.211-.587.747-.851,1.146-.126.191-.185.43-.416.527-.389-.046-.087-.462-.334-.586l.441-.379c-.473-.839-1.38-1.065-1.919-1.727-.117-.144-.289-.072-.414.115-.217-.26-.4-.48-.583-.7-.04-.049-.07-.106-.107-.158-.117-.162-.5.113-.468-.264.021-.257.26-.4.414-.584a8.34,8.34,0,0,1,2.019-1.834c.753-.464.945-1.621-.062-1.969.034-.55.419-1.124-.1-1.639-.673.172-.659.265-.787-.476-.171-.99-.3-1.115-1.328-1.112a2,2,0,0,1-.8-.052.281.281,0,0,1-.04-.312,1.627,1.627,0,0,0-.134-1.26,1.217,1.217,0,0,1-.027-1.013c.08-.272.215-.527.31-.795a.912.912,0,0,0-.222-1.04,1.1,1.1,0,0,1-.485-1.231c-.452,0-.824.015-1.193-.006-.212-.012-.5.136-.622-.106a1.34,1.34,0,0,1-.215-.942c.359-1.23-.168-1.516-1.281-1.781-.574-.136-1.161-.143-1.534-.7a.376.376,0,0,0-.463-.153c-.368.218-.579.007-.8-.222s-.451-.5-.691-.736c-.2-.2-.082-.425-.1-.637-.022-.3-.006-.6-.006-.982-.648.2-1.318.142-1.687.773a.586.586,0,0,1-.689.312.479.479,0,0,0-.523.271.7.7,0,0,1-.9.237,1.311,1.311,0,0,0-.913.025l-.49-.49a2.937,2.937,0,0,0,.125-1.2" transform="translate(-2320.691 -458.763)"/><path class="a" d="M2577.448,407.24a3.584,3.584,0,0,0,1.741.452,3.874,3.874,0,0,1,3.123,1.289,4.786,4.786,0,0,0,2.16,1.291c.623.129.868.736.989,1.3a1.792,1.792,0,0,0,.268.733,1.531,1.531,0,0,0-.268.688,2.264,2.264,0,0,1-.66,1.224,15.5,15.5,0,0,0-2.279,2.689" transform="translate(-2547.319 -399.473)"/><path class="a" d="M2435.513,342.994a1.981,1.981,0,0,0-.8.316c-.3-.1-.247-.344-.267-.579-.045-.528-.321-.735-.77-.569-.5-.661-1.36-.675-2.035-1.053-.146-.082-.415.092-.624.08-.335-.019-.332.368-.6.436-.139-.3.113-.611-.053-.968a12.347,12.347,0,0,1-1.569-.1c-.273.018-.452.037-.49.376-.02.184,0,.473-.355.489-.137.006-.249-.041-.254-.118-.015-.23-.084-.49.1-.684a6.324,6.324,0,0,0,1.052-1.219c.064-.117.107-.246.16-.369a1.847,1.847,0,0,1-.9-1.691c.012-.387,0-.387-.716-1.033-.288.4-.825.579-.8,1.246.009.214-.357.519-.638.695a.809.809,0,0,0-.794-.094.875.875,0,0,1-.963-.176c-.1-.079-.33-.181-.353-.152-.214.261-.588.134-.807.358-.13.133.124.3-.136.486-.735-.32-1.438.066-2.2.283-1.013.29-1.53-.1-1.667-1.14a2,2,0,0,1,.2-.945c.14-.344.152-.621-.17-.848a.564.564,0,0,1-.263-.583" transform="translate(-2405.49 -335.279)"/><path class="a" d="M2302.181,345.909a2,2,0,0,0,.478,1.055c.188.267.4.519.62.8a4.661,4.661,0,0,1-2.795,1.386c-.394.064-.715-.406-.887-.814-.052-.124-.048-.271-.165-.368l-.5.5c-.237-.419-.512-.289-.766-.234s-.525.163-.794.2a.425.425,0,0,0-.359.38c-.054.221.107.257.306.276.1.009.2.156.213.3-.135.175-.365.078-.536.2-.224.162-.4.621-.2.738.962.546.637,1.353.465,2.124-.119.533-.326,1.051-.4,1.588-.068.478-.309.5-.646.361a.55.55,0,0,0-.588.055c-.357.247-.734.466-1.106.691-.55.333-.639.564-.536,1.217.038.238.093.52-.308.589s-.429.47-.54.814c.318.607,1.109.945,1.111,1.77.244.127.571.049.713.413.091.233.828.233,1.093.06.127-.083.169-.285.37-.265" transform="translate(-2293.135 -344.641)"/><path class="a" d="M2383.664,333.942a7.26,7.26,0,0,1-2.009,1.051.275.275,0,0,0-.209.112c-.363.6-.863.423-1.377.27-.185-.055-.35-.275-.579-.113" transform="translate(-2370.339 -333.942)"/></g></svg>