<svg xmlns="http://www.w3.org/2000/svg" width="37.18" height="41.102" viewBox="0 0 37.18 41.102"><defs><style>.a{fill:#fff;}</style></defs><g transform="translate(579.198 -787.562)"><path class="a" d="M-569.133,974.611c-.491-.344-.871-.02-1.124.429-.124.243-.272.285-.547.194-2.379-.766-4.868-1.457-7.386-.985a.817.817,0,0,0-.714.695,10.276,10.276,0,0,0,.305,5.863c.075.137.931,1.924,1.02,2.1a9.222,9.222,0,0,0,7.235,4.521,13.284,13.284,0,0,1,3.992.8.473.473,0,0,1,.359.521c-.014,1.872,0,3.745-.013,5.617a.816.816,0,0,0,.432.828h.4a.943.943,0,0,0,.4-.895q-.018-2.909,0-5.817a2.252,2.252,0,0,1,.129-.738A10.71,10.71,0,0,0-569.133,974.611Zm2.494,12.146c0,.01-.01.021,0,0Zm1.183-.554c-1.532-2.931-2.7-4.807-5.759-6.329a.621.621,0,0,0-.807.09.544.544,0,0,0-.053.735,1.253,1.253,0,0,0,.441.329,10.35,10.35,0,0,1,4.98,5.691c-1.279-.177-2.52-.363-3.764-.514a7.322,7.322,0,0,1-3.208-1.04,9.656,9.656,0,0,1-2.945-2.923c-.034-.053-.861-1.825-.894-1.879l-.023-.035a9.519,9.519,0,0,1-.353-4.521c.048-.318.167-.467.507-.455.48.017.962-.034,1.44,0a18.287,18.287,0,0,1,4.907,1.111c.952.335.95.34,1.549-.452a.252.252,0,0,1,.064-.044A9.345,9.345,0,0,1-565.457,986.2Z" transform="translate(0 -166.534)"/><path class="a" d="M-522.348,791.341a1.356,1.356,0,0,0-.133-.1,20.779,20.779,0,0,0-2.006-1.373,17.077,17.077,0,0,0-25.558,13.906,25.975,25.975,0,0,0,.067,2.6.608.608,0,1,0,1.21-.071,15.839,15.839,0,0,1,3.684-11.926.612.612,0,0,1,.581-.255c1.37.121,2.746.189,4.109.363,1.706.234,4.278.985,4.844,2.827a2.839,2.839,0,0,1-1.174,3.27c-.786.528-1.647.943-2.435,1.468a3.407,3.407,0,0,0-.994,4.967,23.5,23.5,0,0,0,1.615,1.99,4.96,4.96,0,0,1,1.222,2.221.588.588,0,0,0,.706.493.6.6,0,0,0,.471-.759,4.291,4.291,0,0,0-.416-1.2c-.405-.656-.89-1.263-1.356-1.88a20.314,20.314,0,0,1-1.359-1.778,2.121,2.121,0,0,1,.685-2.958c.85-.577,1.78-1.035,2.632-1.607a4.051,4.051,0,0,0-.069-6.724,14.816,14.816,0,0,0-7.645-1.894,15.765,15.765,0,0,1,18.765-1.888c.841.564,1.312.889,1.581,1.04.428.459.968.855,1.419,1.278-2.1,1.18-3.649,2.409-3.062,5.048.343,1.506,1.341,2.721,1.808,4.174a1.858,1.858,0,0,1-.645,2.154c-1.57,1.255-2.722,2.517-2.368,4.659a53.323,53.323,0,0,0,2.39,8.041,15.41,15.41,0,0,1-8.121,2.97c-.467.035-.718.267-.7.649s.29.623.76.557C-516.44,820.489-510.328,801.009-522.348,791.341Zm-.072,25c-.084.08-.181.146-.318.256a48.8,48.8,0,0,1-2.175-6.933,3.16,3.16,0,0,1,1.1-3.309c.278-.23.542-.477.817-.711,2.138-1.825.914-3.915-.161-5.924-.623-1.19-1.157-2.867-.076-3.956a6.081,6.081,0,0,1,2.034-1.325c.26-.117.336.065.446.2A15.84,15.84,0,0,1-522.419,816.341Z" transform="translate(-26.015)"/><path class="a" d="M-429.156,1000.406a.582.582,0,0,0-.582-.466c-.347-.01-.694,0-1.042,0V999.9a10.319,10.319,0,0,0-7.755,3.33c-.322.317-.385.856.087,1.065.356.168.6-.017.839-.269a9.106,9.106,0,0,1,7.04-2.9c.281,0,.387.1.386.365a18.444,18.444,0,0,1-.012,2.075c-.33,2.795-2.786,5.833-6.137,5.939a13.109,13.109,0,0,0-1.863.255.588.588,0,0,0-.511.73.588.588,0,0,0,.726.46c.212-.024.421-.072.632-.1a24.9,24.9,0,0,0,2.653-.38A8.274,8.274,0,0,0-429.156,1000.406Z" transform="translate(-125.356 -189.572)"/><path class="a" d="M-433.888,1035.869a28.752,28.752,0,0,1,4.539-3.47,1.312,1.312,0,0,0,.313-.385c.013-.576-.4-.873-.821-.7a25.146,25.146,0,0,0-4.81,3.631A.607.607,0,1,0-433.888,1035.869Z" transform="translate(-128.815 -217.573)"/></g></svg>