<svg xmlns="http://www.w3.org/2000/svg" width="211" height="40" viewBox="0 0 211 40">
  <g id="poweredvtex" transform="translate(96.638 -15.195)">
    <g id="VTEX_white_RGB" transform="translate(4.362 15.195)">
      <path id="Caminho_679" data-name="Caminho 679" d="M237.539,186.14H202.6a3.592,3.592,0,0,0-3.177,5.274l3.5,6.617h-6.337a2.33,2.33,0,0,0-2.061,3.415l11.243,21.274a2.33,2.33,0,0,0,4.119,0l3.053-5.747,3.831,7.251a3.6,3.6,0,0,0,6.353.008L240.63,191.28A3.5,3.5,0,0,0,237.539,186.14Zm-15.7,14.079-7.552,14.212a1.551,1.551,0,0,1-2.74,0l-7.479-14.152A1.551,1.551,0,0,1,205.436,198H220.51a1.509,1.509,0,0,1,1.332,2.217Z" transform="translate(-194.248 -186.14)" fill="#7b7b7b"/>
      <path id="Caminho_680" data-name="Caminho 680" d="M939.286,319h-3.822v13.1a.451.451,0,0,1-.45.45h-2.948a.451.451,0,0,1-.45-.45V319H927.77a.433.433,0,0,1-.45-.428v-2.317a.433.433,0,0,1,.45-.428h11.515a.452.452,0,0,1,.473.428v2.318a.452.452,0,0,1-.472.427Z" transform="translate(-858.826 -303.711)" fill="#7b7b7b"/>
      <path id="Caminho_681" data-name="Caminho 681" d="M1089.59,330.452a29.547,29.547,0,0,1-4.543.292c-2.9,0-5.468-.743-5.468-4.837v-7.473c0-4.094,2.588-4.814,5.49-4.814a29.169,29.169,0,0,1,4.52.292c.315.045.45.158.45.45v2.1a.451.451,0,0,1-.45.45h-4.745c-1.058,0-1.44.36-1.44,1.53v2.048h6a.452.452,0,0,1,.451.45v2.137a.452.452,0,0,1-.451.45h-6v2.385c0,1.169.382,1.53,1.44,1.53h4.745a.451.451,0,0,1,.45.45v2.092C1090.041,330.271,1089.905,330.407,1089.59,330.452Z" transform="translate(-996.86 -301.712)" fill="#7b7b7b"/>
      <path id="Caminho_682" data-name="Caminho 682" d="M1229.163,332.524h-3.578a.6.6,0,0,1-.585-.337l-3.1-4.924-2.811,4.815c-.158.27-.315.45-.56.45h-3.33a.3.3,0,0,1-.337-.292.411.411,0,0,1,.045-.158l4.874-8.127-4.924-7.717a.319.319,0,0,1-.045-.135.324.324,0,0,1,.337-.292h3.622c.248,0,.428.225.561.428l2.879,4.544,2.786-4.544a.73.73,0,0,1,.561-.428h3.33a.281.281,0,0,1,.292.428l-4.9,7.764,5.111,8.079a.5.5,0,0,1,.067.225C1229.456,332.434,1229.343,332.524,1229.163,332.524Z" transform="translate(-1119.455 -303.694)" fill="#7b7b7b"/>
      <path id="Caminho_683" data-name="Caminho 683" d="M758.9,316.283a.348.348,0,0,0-.34.28L755.3,328.65c-.045.247-.112.337-.315.337s-.27-.093-.315-.337L751.4,316.56a.347.347,0,0,0-.34-.28h-3.215a.347.347,0,0,0-.338.426s3.99,13.861,4.034,14a3.386,3.386,0,0,0,3.469,2.441,3.492,3.492,0,0,0,3.467-2.436c.064-.187,3.964-14,3.964-14a.348.348,0,0,0-.338-.425Z" transform="translate(-695.802 -304.123)" fill="#7b7b7b"/>
      <path id="Caminho_684" data-name="Caminho 684" d="M237.539,186.14H202.6a3.592,3.592,0,0,0-3.177,5.274l3.5,6.617h-6.337a2.33,2.33,0,0,0-2.061,3.415l11.243,21.274a2.33,2.33,0,0,0,4.119,0l3.053-5.747,3.831,7.251a3.6,3.6,0,0,0,6.353.008L240.63,191.28A3.5,3.5,0,0,0,237.539,186.14Zm-15.7,14.079-7.552,14.212a1.551,1.551,0,0,1-2.74,0l-7.479-14.152A1.551,1.551,0,0,1,205.436,198H220.51a1.509,1.509,0,0,1,1.332,2.217Z" transform="translate(-194.248 -186.14)" fill="#7b7b7b"/>
    </g>
    <text id="Powered_by" data-name="Powered by" transform="translate(-15.638 40.196)" fill="#7b7b7b" font-size="14" font-family="Quicksand-Bold, Quicksand" font-weight="700" letter-spacing="0.01em"><tspan x="-80" y="0">Powered by</tspan></text>
  </g>
</svg>
