<svg xmlns="http://www.w3.org/2000/svg" width="23.934" height="31.353" viewBox="0 0 23.934 31.353"><defs><style>.a{fill:#fff;}</style></defs><g transform="translate(886.29 -429.268)"><g transform="translate(-886.29 429.268)"><path class="a" d="M-871.1,452.185a3.906,3.906,0,0,1-1.928-.793,3.337,3.337,0,0,0-1.3-.614,3.336,3.336,0,0,0-1.3.614,2.994,2.994,0,0,1-2.4.718c-.867-.282-1.237-1.219-1.564-2.045a3.292,3.292,0,0,0-.646-1.206,3.305,3.305,0,0,0-1.364-.249,3.037,3.037,0,0,1-2.409-.848,3.015,3.015,0,0,1-.064-2.535,3.322,3.322,0,0,0,.182-1.393,3.256,3.256,0,0,0-.93-.966c-.691-.57-1.474-1.216-1.474-2.141s.783-1.572,1.474-2.142a3.249,3.249,0,0,0,.93-.965,3.322,3.322,0,0,0-.182-1.393,3.016,3.016,0,0,1,.064-2.535,3.035,3.035,0,0,1,2.409-.848,3.3,3.3,0,0,0,1.364-.25,3.285,3.285,0,0,0,.646-1.206c.327-.827.7-1.764,1.564-2.045a2.992,2.992,0,0,1,2.4.718,3.348,3.348,0,0,0,1.3.613,3.335,3.335,0,0,0,1.3-.613,2.992,2.992,0,0,1,2.4-.718c.867.282,1.237,1.219,1.563,2.045a3.286,3.286,0,0,0,.646,1.206,3.3,3.3,0,0,0,1.364.25,3.035,3.035,0,0,1,2.408.848,3.018,3.018,0,0,1,.064,2.535,3.324,3.324,0,0,0-.183,1.393,3.268,3.268,0,0,0,.931.966c.691.57,1.474,1.216,1.474,2.142s-.783,1.572-1.475,2.142a3.266,3.266,0,0,0-.93.965,3.324,3.324,0,0,0,.183,1.393,3.018,3.018,0,0,1-.064,2.535,3.035,3.035,0,0,1-2.408.848,3.3,3.3,0,0,0-1.364.25,3.285,3.285,0,0,0-.646,1.206c-.326.827-.7,1.764-1.564,2.045A1.521,1.521,0,0,1-871.1,452.185Zm-6.439-21.6a.261.261,0,0,0-.078.011c-.278.091-.538.749-.747,1.278a3.868,3.868,0,0,1-1.1,1.785,3.894,3.894,0,0,1-2.054.5c-.533.034-1.263.081-1.43.31s.017.925.147,1.438a3.936,3.936,0,0,1,.159,2.122,3.814,3.814,0,0,1-1.343,1.573c-.444.366-1,.822-1,1.129s.552.762,1,1.128a3.814,3.814,0,0,1,1.343,1.573,3.936,3.936,0,0,1-.159,2.122c-.131.513-.309,1.216-.147,1.438s.9.276,1.43.31a3.893,3.893,0,0,1,2.054.5,3.868,3.868,0,0,1,1.1,1.785c.209.529.469,1.188.747,1.278.251.083.854-.3,1.295-.579a3.974,3.974,0,0,1,2-.817,3.972,3.972,0,0,1,2,.817c.441.279,1.045.661,1.3.579.278-.09.538-.749.747-1.278a3.863,3.863,0,0,1,1.1-1.785,3.894,3.894,0,0,1,2.054-.5c.533-.034,1.263-.081,1.429-.31s-.016-.925-.147-1.439a3.928,3.928,0,0,1-.159-2.123,3.813,3.813,0,0,1,1.344-1.572c.444-.366,1-.822,1-1.128s-.552-.763-1-1.129a3.815,3.815,0,0,1-1.344-1.573,3.927,3.927,0,0,1,.159-2.122c.131-.513.309-1.216.147-1.438s-.9-.276-1.43-.31a3.9,3.9,0,0,1-2.054-.5,3.872,3.872,0,0,1-1.1-1.786c-.209-.529-.47-1.188-.747-1.278-.249-.083-.855.3-1.3.579a3.973,3.973,0,0,1-2,.817,3.97,3.97,0,0,1-2-.817A3.452,3.452,0,0,0-877.538,430.581Z" transform="translate(886.29 -429.268)"/><g transform="translate(4.548 4.039)"><path class="a" d="M-870.133,451.866a7.427,7.427,0,0,1-7.419-7.419,7.427,7.427,0,0,1,7.419-7.419,7.427,7.427,0,0,1,7.419,7.419A7.427,7.427,0,0,1-870.133,451.866Zm0-13.524a6.112,6.112,0,0,0-6.105,6.105,6.111,6.111,0,0,0,6.105,6.1,6.112,6.112,0,0,0,6.105-6.1A6.112,6.112,0,0,0-870.133,438.342Z" transform="translate(877.552 -437.028)"/></g><g transform="translate(1.224 18.232)"><path class="a" d="M-877.37,477.417a.657.657,0,0,1-.6-.381l-1.572-3.4-3.521,1.266a.657.657,0,0,1-.7-.165.657.657,0,0,1-.13-.706l3.9-9.335a.657.657,0,0,1,.859-.353.657.657,0,0,1,.353.859l-3.323,7.96,2.684-.964a.656.656,0,0,1,.818.342l1.2,2.588,3.454-8.258a.657.657,0,0,1,.86-.353.657.657,0,0,1,.352.86l-4.029,9.634a.657.657,0,0,1-.594.4Z" transform="translate(883.939 -464.296)"/><g transform="translate(10.231)"><path class="a" d="M-859.6,477.417h-.012a.657.657,0,0,1-.594-.4l-4.029-9.634a.657.657,0,0,1,.352-.86.657.657,0,0,1,.86.353l3.454,8.258,1.2-2.588a.655.655,0,0,1,.818-.342l2.684.964-3.323-7.96a.657.657,0,0,1,.353-.859.656.656,0,0,1,.859.353l3.9,9.335a.658.658,0,0,1-.13.706.657.657,0,0,1-.7.165l-3.521-1.266-1.572,3.4A.656.656,0,0,1-859.6,477.417Z" transform="translate(864.283 -464.296)"/></g></g><g transform="translate(7.479 6.773)"><path class="a" d="M-865.066,450.881a.66.66,0,0,1-.386-.125l-1.981-1.44-1.982,1.44a.655.655,0,0,1-.772,0,.656.656,0,0,1-.239-.734l.757-2.329-1.982-1.44a.657.657,0,0,1-.238-.734.657.657,0,0,1,.625-.454h2.449l.756-2.329a.657.657,0,0,1,.625-.454.657.657,0,0,1,.625.454l.757,2.329h2.449a.657.657,0,0,1,.625.454.658.658,0,0,1-.239.734l-1.982,1.44.757,2.329a.658.658,0,0,1-.239.734A.659.659,0,0,1-865.066,450.881Zm-2.367-3.034a.656.656,0,0,1,.386.125l.732.532-.28-.86a.658.658,0,0,1,.239-.734l.732-.532h-.9a.657.657,0,0,1-.625-.454l-.28-.86-.279.86a.657.657,0,0,1-.625.454h-.9l.732.532a.657.657,0,0,1,.238.734l-.28.86.732-.532A.654.654,0,0,1-867.433,447.847Z" transform="translate(871.921 -442.281)"/></g></g></g></svg>