<svg id="visa" xmlns="http://www.w3.org/2000/svg" width="49.244" height="31.052" viewBox="0 0 49.244 31.052">
  <path id="Subtração_1" data-name="Subtração 1" d="M47.245,31.052H2a2,2,0,0,1-2-2V2A2,2,0,0,1,2,0H47.245a2,2,0,0,1,2,2V29.052A2,2,0,0,1,47.245,31.052ZM23.687,18.711l-.613,2.867a10.314,10.314,0,0,0,3.763.695c3.566,0,5.877-1.758,5.888-4.477.01-2.063-1.7-2.957-3.067-3.676-.9-.474-1.684-.883-1.67-1.5.008-.422.388-.961,1.434-1.1A4.454,4.454,0,0,1,30,11.486a6.638,6.638,0,0,1,2.753.617l.593-2.771a9.068,9.068,0,0,0-3.163-.579c-3.346,0-5.7,1.778-5.717,4.323-.022,1.881,1.68,2.931,2.962,3.557,1.316.641,1.759,1.051,1.753,1.625-.008.859-1.022,1.261-2.023,1.279h-.131a6.991,6.991,0,0,1-3.27-.793Zm13.118,1.4h4.34l.408,1.953h3.129L41.952,8.992H39.063a1.538,1.538,0,0,0-1.439.958L32.551,22.066H36.1l.7-1.952ZM20.168,8.992l-2.8,13.074h3.383l2.8-13.074Zm-17.261,0-.083.379a14.456,14.456,0,0,1,3.338,1.111,1.441,1.441,0,0,1,.8,1.15L9.661,22.066h3.577L18.717,8.992H15.163l-3.519,8.9-1.425-7.567A1.58,1.58,0,0,0,8.66,8.992Zm37.678,8.442H37.778l1.781-4.91,1.025,4.908Z" transform="translate(0 0)" fill="#2e2e2e"/>
</svg>
