<svg xmlns="http://www.w3.org/2000/svg" width="22" height="22" viewBox="0 0 22 22">
  <g id="wpp" transform="translate(-636.101 -622.432)" style="mix-blend-mode: normal;isolation: isolate">
    <path id="Caminho_2243" data-name="Caminho 2243" d="M530.7,551.734l1.581-5.885a10.927,10.927,0,1,1,4.349,4.3Zm6.225-3.79.373.222a8.842,8.842,0,1,0-3.031-3l.228.375-.882,3.285Z" transform="translate(105.4 92.698)" fill="#fff"/>
    <path id="Caminho_2244" data-name="Caminho 2244" d="M545.468,541.728a1.836,1.836,0,0,0-1.56-.351c-.405.166-.664.8-.926,1.122a.389.389,0,0,1-.5.108,7.058,7.058,0,0,1-3.526-3.012.43.43,0,0,1,.055-.589,2.389,2.389,0,0,0,.64-1.037,2.265,2.265,0,0,0-.286-1.228,2.911,2.911,0,0,0-.909-1.367,1.247,1.247,0,0,0-1.352.2,2.736,2.736,0,0,0-.952,2.17,3.032,3.032,0,0,0,.086.689,5.7,5.7,0,0,0,.661,1.522,12.019,12.019,0,0,0,.691,1.049,10.654,10.654,0,0,0,3,2.777,9.071,9.071,0,0,0,1.869.887,4.163,4.163,0,0,0,2.176.343,2.636,2.636,0,0,0,1.974-1.465,1.273,1.273,0,0,0,.091-.746C546.584,542.283,545.885,541.977,545.468,541.728Z" transform="translate(105.792 93.081)" fill="#fff" fill-rule="evenodd"/>
  </g>
</svg>
