<svg xmlns="http://www.w3.org/2000/svg" id="Icon_awesome-linkedin" data-name="Icon awesome-linkedin" width="18.96" height="18.96" viewBox="0 0 18.96 18.96">
  <path id="Icon_awesome-linkedin-2" data-name="Icon awesome-linkedin" d="M17.606,2.25H1.35A1.36,1.36,0,0,0,0,3.617V19.843A1.36,1.36,0,0,0,1.35,21.21H17.606a1.364,1.364,0,0,0,1.354-1.367V3.617A1.364,1.364,0,0,0,17.606,2.25ZM5.73,18.5H2.92V9.453H5.735V18.5ZM4.325,8.217A1.629,1.629,0,1,1,5.955,6.588,1.63,1.63,0,0,1,4.325,8.217ZM16.264,18.5h-2.81V14.1c0-1.05-.021-2.4-1.46-2.4-1.464,0-1.689,1.143-1.689,2.323V18.5H7.5V9.453h2.7v1.236h.038a2.96,2.96,0,0,1,2.662-1.46c2.844,0,3.373,1.875,3.373,4.313Z" transform="translate(0 -2.25)" fill="#424244"/>
</svg>