<svg id="Icon_awesome-instagram" data-name="Icon awesome-instagram" xmlns="http://www.w3.org/2000/svg" width="18.964" height="18.96" viewBox="0 0 18.964 18.96">
  <path id="Icon_awesome-instagram-2" data-name="Icon awesome-instagram" d="M9.479,6.857a4.861,4.861,0,1,0,4.861,4.861A4.853,4.853,0,0,0,9.479,6.857Zm0,8.021a3.16,3.16,0,1,1,3.16-3.16,3.166,3.166,0,0,1-3.16,3.16Zm6.194-8.22a1.134,1.134,0,1,1-1.134-1.134A1.131,1.131,0,0,1,15.673,6.658Zm3.22,1.151a5.611,5.611,0,0,0-1.532-3.973A5.648,5.648,0,0,0,13.388,2.3c-1.565-.089-6.257-.089-7.823,0A5.64,5.64,0,0,0,1.593,3.832,5.629,5.629,0,0,0,.061,7.8c-.089,1.565-.089,6.257,0,7.823A5.611,5.611,0,0,0,1.593,19.6a5.655,5.655,0,0,0,3.973,1.532c1.565.089,6.257.089,7.823,0A5.611,5.611,0,0,0,17.361,19.6a5.648,5.648,0,0,0,1.532-3.973c.089-1.565.089-6.253,0-7.818Zm-2.022,9.5a3.2,3.2,0,0,1-1.8,1.8c-1.248.495-4.21.381-5.589.381s-4.345.11-5.589-.381a3.2,3.2,0,0,1-1.8-1.8c-.495-1.248-.381-4.21-.381-5.589s-.11-4.345.381-5.589a3.2,3.2,0,0,1,1.8-1.8c1.248-.495,4.21-.381,5.589-.381s4.345-.11,5.589.381a3.2,3.2,0,0,1,1.8,1.8c.495,1.248.381,4.21.381,5.589S17.365,16.063,16.87,17.306Z" transform="translate(0.005 -2.238)" fill="#66666b"/>
</svg>
