<svg id="Grupo_1942" data-name="Grupo 1942" xmlns="http://www.w3.org/2000/svg" width="31.066" height="24.17" viewBox="0 0 31.066 24.17">
  <path id="Caminho_234" data-name="Caminho 234" d="M-149.953,893.3c-.127,0-.183.04-.183.148s.055.155.183.155.18-.039.18-.147S-149.827,893.3-149.953,893.3Z" transform="translate(173.979 -877.536)" fill="#f3f3f3"/>
  <path id="Caminho_235" data-name="Caminho 235" d="M-156.507,893.256c-.153,0-.2.067-.215.166h.429C-156.3,893.313-156.353,893.256-156.507,893.256Z" transform="translate(173.319 -877.541)" fill="#f3f3f3"/>
  <path id="Caminho_236" data-name="Caminho 236" d="M-155.165,893.457c0,.139.064.2.189.2a1.25,1.25,0,0,0,.248-.037v-.33a.567.567,0,0,0-.194-.033C-155.087,893.256-155.165,893.312-155.165,893.457Z" transform="translate(173.475 -877.541)" fill="#f3f3f3"/>
  <path id="Caminho_237" data-name="Caminho 237" d="M-157.958,893.256c-.165,0-.239.053-.239.2s.073.2.239.2.239-.052.239-.2S-157.792,893.256-157.958,893.256Z" transform="translate(173.172 -877.541)" fill="#f3f3f3"/>
  <path id="Caminho_238" data-name="Caminho 238" d="M-148.328,893.287c-.11,0-.153.04-.162.113h.321C-148.172,893.322-148.217,893.287-148.328,893.287Z" transform="translate(174.144 -877.538)" fill="#f3f3f3"/>
  <path id="Caminho_239" data-name="Caminho 239" d="M-151.964,893.531c0,.042.028.065.1.065a.963.963,0,0,0,.2-.029v-.092a1.712,1.712,0,0,0-.172-.008C-151.93,893.467-151.964,893.487-151.964,893.531Z" transform="translate(173.796 -877.52)" fill="#f3f3f3"/>
  <path id="Caminho_240" data-name="Caminho 240" d="M-152.478,893.408h-.186v.168h.187c.128,0,.175-.014.175-.085S-152.368,893.408-152.478,893.408Z" transform="translate(173.726 -877.526)" fill="#f3f3f3"/>
  <path id="Caminho_241" data-name="Caminho 241" d="M-152.336,893.246c0-.075-.063-.084-.176-.084h-.152v.171h.153C-152.386,893.333-152.336,893.317-152.336,893.246Z" transform="translate(173.726 -877.55)" fill="#f3f3f3"/>
  <path id="Caminho_242" data-name="Caminho 242" d="M-155.552,893.256c-.153,0-.2.067-.215.166h.429C-155.342,893.313-155.4,893.256-155.552,893.256Z" transform="translate(173.415 -877.541)" fill="#f3f3f3"/>
  <path id="Caminho_243" data-name="Caminho 243" d="M-153.952,893.258a1.173,1.173,0,0,0-.248.039v.328a.549.549,0,0,0,.194.034c.165,0,.243-.056.243-.2S-153.827,893.258-153.952,893.258Z" transform="translate(173.572 -877.541)" fill="#f3f3f3"/>
  <path id="Caminho_244" data-name="Caminho 244" d="M-143.331,878.972h-25.891a2.59,2.59,0,0,0-2.587,2.593v18.986a2.589,2.589,0,0,0,2.589,2.591h25.887a2.59,2.59,0,0,0,2.59-2.59V881.563A2.591,2.591,0,0,0-143.331,878.972Zm-22.8,8.4a1.336,1.336,0,0,1,1.889,0l1.674,1.676h-.158a1.283,1.283,0,0,0-.913.377l-1.319,1.319a.245.245,0,0,1-.347,0l-1.324-1.324a1.28,1.28,0,0,0-.913-.378h-.26Zm1.889,8.009a1.336,1.336,0,0,1-1.889,0l-1.67-1.67h.26a1.279,1.279,0,0,0,.913-.378l1.324-1.323a.251.251,0,0,1,.347,0l1.319,1.319a1.28,1.28,0,0,0,.913.378h.158Zm3.06-3.06-1.012,1.011a.193.193,0,0,0-.072-.014h-.46a.908.908,0,0,1-.639-.264l-1.319-1.319a.648.648,0,0,0-.894,0l-1.324,1.324a.909.909,0,0,1-.639.265h-.565a.2.2,0,0,0-.068.013l-1.015-1.016a1.336,1.336,0,0,1,0-1.889l1.015-1.017a.179.179,0,0,0,.068.014h.565a.908.908,0,0,1,.639.264l1.324,1.324a.631.631,0,0,0,.448.185.63.63,0,0,0,.447-.185l1.319-1.318a.909.909,0,0,1,.639-.265h.46a.193.193,0,0,0,.072-.014l1.012,1.012h0A1.336,1.336,0,0,1-161.185,892.324Zm3.523.369a.167.167,0,0,1,.167-.166h2.257a1.638,1.638,0,0,0,1.636-1.636v-1.152a1.634,1.634,0,0,0-1.629-1.633l-1.6,0a1.638,1.638,0,0,0-1.636,1.635v5.411a.167.167,0,0,1-.166.167.167.167,0,0,1-.167-.167v-5.411a1.971,1.971,0,0,1,1.969-1.968l1.6,0a1.969,1.969,0,0,1,1.963,1.966v1.152a1.972,1.972,0,0,1-1.969,1.969h-2.257A.167.167,0,0,1-157.662,892.693Zm.547,2.405a.4.4,0,0,1-.191.043.694.694,0,0,1-.2-.031v.193h-.055v-.652h.045l0,.029a1.33,1.33,0,0,1,.259-.042.255.255,0,0,1,.168.049.247.247,0,0,1,.075.2A.227.227,0,0,1-157.115,895.1Zm.734-.008a.36.36,0,0,1-.213.051.365.365,0,0,1-.213-.051.23.23,0,0,1-.085-.2.233.233,0,0,1,.085-.2.364.364,0,0,1,.213-.051.366.366,0,0,1,.213.051.232.232,0,0,1,.085.2A.232.232,0,0,1-156.381,895.09Zm.833.037h-.051l-.184-.4h0l-.182.4h-.049l-.2-.477h.062l.164.4h0l.177-.4h.052l.183.4h0l.16-.4h.059Zm.556-.039a1.438,1.438,0,0,0,.246-.027v.049a1.449,1.449,0,0,1-.251.03.289.289,0,0,1-.2-.053.252.252,0,0,1-.075-.2.247.247,0,0,1,.089-.2.314.314,0,0,1,.186-.048.338.338,0,0,1,.191.046.244.244,0,0,1,.081.22h-.488C-155.211,895-155.179,895.089-154.993,895.089Zm.724-.4h-.013a.776.776,0,0,0-.224.039v.4h-.056v-.477h.045l0,.029a.851.851,0,0,1,.238-.042h.007Zm.327.4a1.439,1.439,0,0,0,.246-.027v.049a1.449,1.449,0,0,1-.251.03.289.289,0,0,1-.2-.053.252.252,0,0,1-.075-.2.25.25,0,0,1,.089-.2.314.314,0,0,1,.186-.048.336.336,0,0,1,.191.046.241.241,0,0,1,.083.22h-.49C-154.16,895-154.127,895.089-153.942,895.089Zm.936.039h-.045l0-.029a1.334,1.334,0,0,1-.259.042.25.25,0,0,1-.168-.05.247.247,0,0,1-.075-.2.223.223,0,0,1,.106-.208.391.391,0,0,1,.193-.044.694.694,0,0,1,.2.031v-.219h.055Zm.96-.03a.4.4,0,0,1-.191.043.66.66,0,0,1-.213-.036l0,.023h-.037v-.679h.055v.228a1.394,1.394,0,0,1,.253-.04.254.254,0,0,1,.168.049.247.247,0,0,1,.075.2A.227.227,0,0,1-152.045,895.1Zm-.251-7h-.693a.167.167,0,0,1-.166-.167.167.167,0,0,1,.166-.166h.693a.907.907,0,0,1,.907.906v4.041a.167.167,0,0,1-.166.167.167.167,0,0,1-.167-.167v-4.041A.574.574,0,0,0-152.3,888.1Zm.7,7.083a.193.193,0,0,1-.2.13.518.518,0,0,1-.069-.005v-.052a.672.672,0,0,0,.072.005.146.146,0,0,0,.15-.1l.018-.037-.25-.477h.065l.213.413h0l.2-.413h.063Zm.49-8.19-.315.314a.2.2,0,0,1-.282,0l-.315-.314a.2.2,0,0,1,0-.283l.314-.315a.2.2,0,0,1,.283,0l.315.315A.2.2,0,0,1-151.108,887Zm.8,8.086a.556.556,0,0,1-.3.045h-.283v-.648h.276a.528.528,0,0,1,.275.042.138.138,0,0,1,.066.129.142.142,0,0,1-.1.144v0c.084.019.138.062.138.153A.141.141,0,0,1-150.307,895.082Zm.768.045h-.106l0-.029a1.164,1.164,0,0,1-.26.042.245.245,0,0,1-.144-.035.134.134,0,0,1-.053-.115.132.132,0,0,1,.08-.129.426.426,0,0,1,.178-.026c.051,0,.118,0,.173.007v-.008c0-.075-.048-.1-.183-.1-.052,0-.116,0-.176.008v-.1c.067-.005.143-.01.2-.01a.407.407,0,0,1,.222.044.178.178,0,0,1,.066.164Zm.755,0h-.132v-.264c0-.087-.045-.118-.124-.118a.963.963,0,0,0-.195.03v.352h-.133v-.477h.109l0,.031a1.1,1.1,0,0,1,.255-.044.236.236,0,0,1,.164.049.186.186,0,0,1,.052.149Zm.608-.018a1.169,1.169,0,0,1-.232.031.267.267,0,0,1-.177-.051.243.243,0,0,1-.076-.2.232.232,0,0,1,.1-.2.385.385,0,0,1,.21-.047c.055,0,.109,0,.168.01v.1c-.048,0-.106-.008-.152-.008-.127,0-.187.04-.187.148s.045.147.149.147a1.115,1.115,0,0,0,.2-.024Zm.623-.02a.4.4,0,0,1-.229.051.4.4,0,0,1-.23-.051.221.221,0,0,1-.089-.2.222.222,0,0,1,.089-.2.4.4,0,0,1,.23-.051.4.4,0,0,1,.229.051.222.222,0,0,1,.089.2A.225.225,0,0,1-147.553,895.09Zm1.169.01a1.6,1.6,0,0,1-.311.041.358.358,0,0,1-.232-.067.333.333,0,0,1-.1-.271.317.317,0,0,1,.131-.275.5.5,0,0,1,.274-.061c.072,0,.145,0,.226.011v.116c-.068-.005-.154-.01-.22-.01-.184,0-.262.07-.262.219s.073.22.208.22a1.467,1.467,0,0,0,.288-.038Zm.4-.059a1.594,1.594,0,0,0,.254-.025v.095a1.9,1.9,0,0,1-.287.031.313.313,0,0,1-.2-.053.248.248,0,0,1-.076-.2.24.24,0,0,1,.089-.2.355.355,0,0,1,.209-.051.367.367,0,0,1,.207.048c.077.054.084.136.085.235h-.454C-146.152,894.993-146.113,895.04-145.979,895.04Zm1,.087h-.133v-.264c0-.087-.044-.118-.123-.118a.963.963,0,0,0-.195.03v.352h-.133v-.477h.109l0,.031a1.079,1.079,0,0,1,.255-.044.234.234,0,0,1,.163.049.183.183,0,0,1,.053.149Zm.517,0a.736.736,0,0,1-.139.018.173.173,0,0,1-.154-.068.243.243,0,0,1-.035-.144v-.179h-.1v-.1h.1l.014-.144h.118v.144h.188v.1h-.188v.153a.239.239,0,0,0,.013.091.085.085,0,0,0,.087.044.644.644,0,0,0,.1-.009Zm.488-.372h-.046a.774.774,0,0,0-.187.024v.353h-.133v-.477h.109l0,.031a.8.8,0,0,1,.237-.044h.017Zm.618.376h-.106l0-.029a1.164,1.164,0,0,1-.259.042.246.246,0,0,1-.145-.035.137.137,0,0,1-.053-.115.134.134,0,0,1,.08-.129.431.431,0,0,1,.178-.026c.051,0,.118,0,.174.007v-.008c0-.075-.049-.1-.184-.1-.052,0-.116,0-.176.008v-.1c.067-.005.143-.01.206-.01a.4.4,0,0,1,.221.044.178.178,0,0,1,.066.164Zm.3,0h-.134v-.679h.134Zm-.086-2.285h-.559a1.489,1.489,0,0,1-1.061-.439l-1.6-1.6a.369.369,0,0,0-.26-.107.364.364,0,0,0-.259.107l-1.608,1.607a1.485,1.485,0,0,1-1.059.44h-.688a.166.166,0,0,1-.166-.167.166.166,0,0,1,.166-.166h.688a1.159,1.159,0,0,0,.824-.342l1.607-1.607a.7.7,0,0,1,.5-.2.7.7,0,0,1,.5.2l1.6,1.6a1.158,1.158,0,0,0,.824.341h.559a.166.166,0,0,1,.166.167A.165.165,0,0,1-143.133,892.842Zm0-4.737h-.559a1.158,1.158,0,0,0-.824.341l-1.6,1.6a.7.7,0,0,1-.5.2.7.7,0,0,1-.5-.2l-1.607-1.607a1.158,1.158,0,0,0-.824-.341h-.688a.166.166,0,0,1-.166-.167.165.165,0,0,1,.166-.166h.688a1.484,1.484,0,0,1,1.059.439l1.608,1.607a.36.36,0,0,0,.259.107.364.364,0,0,0,.26-.107l1.6-1.6a1.493,1.493,0,0,1,1.061-.439h.559a.166.166,0,0,1,.166.167A.166.166,0,0,1-143.133,888.1Z" transform="translate(171.808 -878.972)" fill="#f3f3f3"/>
  <path id="Caminho_245" data-name="Caminho 245" d="M-146.34,893.531c0,.042.029.065.1.065a.984.984,0,0,0,.2-.029v-.092c-.056-.006-.113-.008-.173-.008C-146.306,893.467-146.34,893.487-146.34,893.531Z" transform="translate(174.36 -877.52)" fill="#f3f3f3"/>
  <path id="Caminho_246" data-name="Caminho 246" d="M-158.56,893.258a1.173,1.173,0,0,0-.248.039v.329a.566.566,0,0,0,.193.033c.166,0,.244-.056.244-.2S-158.435,893.258-158.56,893.258Z" transform="translate(173.11 -877.541)" fill="#f3f3f3"/>
</svg>