<svg xmlns="http://www.w3.org/2000/svg" width="31.071" height="24.166" viewBox="0 0 31.071 24.166">
  <path id="Icon_awesome-cc-visa" data-name="Icon awesome-cc-visa" d="M25.358,13s.41,2.007.5,2.427h-1.8c.178-.48.863-2.346.863-2.346-.011.016.178-.491.286-.8l.151.723Zm5.712-8.161V23.827a2.59,2.59,0,0,1-2.589,2.589H2.589A2.59,2.59,0,0,1,0,23.827V4.839A2.59,2.59,0,0,1,2.589,2.25H28.481A2.59,2.59,0,0,1,31.071,4.839ZM8.226,18.389l3.409-8.372H9.343l-2.12,5.718-.232-1.16-.755-3.851a.9.9,0,0,0-.982-.707H1.764l-.038.167A8.56,8.56,0,0,1,4,11.107l1.931,7.282Zm5.092.011,1.359-8.383H12.509L11.155,18.4h2.163Zm7.546-2.74c.011-.955-.572-1.683-1.818-2.282-.761-.383-1.224-.642-1.224-1.036.011-.356.394-.723,1.246-.723a3.717,3.717,0,0,1,1.613.318l.194.092.3-1.812a5.387,5.387,0,0,0-1.942-.356c-2.141,0-3.646,1.144-3.657,2.773-.016,1.2,1.079,1.872,1.9,2.276.836.41,1.122.68,1.122,1.041-.011.561-.68.82-1.3.82a4.321,4.321,0,0,1-2.034-.448l-.286-.135-.3,1.883a6.619,6.619,0,0,0,2.417.448C19.365,18.524,20.849,17.4,20.865,15.66Zm7.617,2.74-1.748-8.383H25.056a1.067,1.067,0,0,0-1.133.7L20.7,18.4h2.276s.372-1.036.453-1.257h2.783c.065.3.259,1.257.259,1.257Z" transform="translate(0 -2.25)" fill="#f3f3f3"/>
</svg>