<svg xmlns="http://www.w3.org/2000/svg" width="31.087" height="24.166" viewBox="0 0 31.087 24.166">
  <path id="Icon_awesome-cc-amex" data-name="Icon awesome-cc-amex" d="M17.533,9.575c0-.885-.761-.993-1.478-.993l-2.109-.016V12.3h.885V10.951H15.8c.993,0,.782.556.8,1.354h.9v-.728c0-.5-.081-.815-.593-.993a1.062,1.062,0,0,0,.631-1.009Zm-1.586.61H14.831V9.36h1.133c.275,0,.577.054.577.4s-.286.426-.593.426Zm-.9,4.828H12.2l-1.133,1.23-1.106-1.23H6.378l-.005,3.738H9.9l1.149-1.241,1.1,1.241h1.737l.005-1.257c1.02,0,2.659.248,2.659-1.257,0-.933-.663-1.224-1.5-1.224Zm-5.6,2.951H7.257v-.744H9.215v-.761H7.257v-.674H9.507l.966,1.09ZM13,18.406,11.632,16.89,13,15.412Zm2.039-1.672H13.892v-.949h1.16c.3,0,.55.124.55.453,0,.345-.248.5-.566.5Zm-1.7-7.374V8.572H10.337V12.31h2.994v-.771h-2.1v-.744h2.039v-.761H11.233V9.36ZM31.067,14.3h-.011Zm-10.5,1.721c0-.885-.761-1.009-1.462-1.009H16.983l-.005,3.738h.9l.005-1.365h.949c.593,0,.8.108.8.744l-.005.62h.9l.005-.744c0-.48-.1-.815-.593-.993a1.067,1.067,0,0,0,.642-.993Zm-1.575.6H17.878v-.841h1.133c.275,0,.577.054.577.4,0,.372-.291.442-.593.442ZM9.674,12.31V8.572H8.185L7.122,11.107,5.952,8.572H4.49v3.544L2.974,8.572H1.653L.051,12.31h.966l.345-.825H3.222l.345.825H5.391V9.386L6.686,12.31h.788L8.768,9.386V12.31Zm-7.994-1.6.6-1.489.62,1.489Zm25.752,8.571v-.243c-.583.3-.21.243-8.453.243,0-1.359.005-1.289,0-1.359-.092-.005-.173-.005-.507-.005,0,.966-.005.367-.005,1.365H16.33c0-.653.005-.825.005-1.575a3.5,3.5,0,0,1-1.85.334c0,.793-.005.448-.005,1.241H11.842c-.275-.307-.146-.167-.831-.939-.173.189-.69.75-.868.939H5.72V14.3H10.2c.27.3.151.167.836.928.173-.189.658-.723.847-.928h3.129a2.576,2.576,0,0,1,1.311.3v-.3c2.929,0,3.468-.076,4.083.275V14.3h4.218v.28c.615-.372,1.057-.28,3.5-.28v.27c.556-.318.9-.28,2.929-.27V4.839A2.59,2.59,0,0,0,28.467,2.25H2.575A2.59,2.59,0,0,0-.014,4.839v5.923C.493,9.581,1.049,8.281,1.232,7.855H3.373c.232.545.086.2.485,1.138V7.855H6.34c.156.334.6,1.295.75,1.618.313-.734.545-1.289.68-1.618h5.556c0-.005.62,0,.626,0,2.357.011,2.891-.043,3.474.286V7.855h2.152v.5a2.58,2.58,0,0,1,1.656-.5h1.489c0,.027.1.016.124.016h1.748c.227.529.14.324.475,1.111V7.871H27.4c.264.432-.054-.1.6.993V7.871h2.152v4.963H27.917c-.291-.485-.076-.119-.712-1.181v1.181H24.357c-.345-.8-.005-.016-.356-.825H22.976c-.227.539-.119.28-.345.825H21.185a2.508,2.508,0,0,1-1.6-.48v.48H16c-.016-.75-.005-1.338-.005-1.338a3.85,3.85,0,0,0-.529-.011v1.354H8.153v-.615c-.135.3-.146.318-.275.615H6.286c-.216-.48-.156-.345-.275-.615v.615H3.158c-.227-.545-.119-.286-.345-.825H1.777c-.227.539-.119.28-.345.825H0V23.827a2.59,2.59,0,0,0,2.589,2.589h25.9a2.59,2.59,0,0,0,2.589-2.589V18.95C30.388,19.4,29.309,19.279,27.432,19.279ZM29.39,15.8h1.624v-.788H29.239a1.132,1.132,0,0,0-1.284,1.117c0,1.78,2.3.69,2.3,1.478,0,.275-.232.345-.453.345H28.079l-.005.8H29.8a1.414,1.414,0,0,0,1.214-.48V16.879c-.566-.744-2.12-.07-2.12-.728,0-.313.248-.351.5-.351Zm-3.075,2.147H24.578l-.005.8H26.31c.8,0,1.413-.3,1.413-1.187,0-1.791-2.314-.6-2.314-1.419,0-.3.264-.345.5-.345h1.64v-.788H25.754a1.119,1.119,0,0,0-1.268,1.117c0,1.78,2.3.674,2.3,1.478-.005.291-.254.345-.475.345Zm-2.276-2.163v-.771H21.061l-.005,3.738h2.978l.005-.771-2.082-.016v-.744H24v-.761H21.962v-.674ZM21,9.953c-.016.011-.076.119-.076.41,0,.324.049.415.059.426a.425.425,0,0,0,.183.027l.394-.912c-.059,0-.113-.005-.167-.005C21.093,9.9,21.018,9.937,21,9.953Zm1.1-.566H22.1Zm-.874-.82c-1.268,0-1.834.647-1.834,1.9,0,1.2.55,1.834,1.78,1.834H22.21l.345-.825h1.85l.356.825h1.818v-2.8l1.683,2.8h1.273V8.583h-.912v2.595l-1.57-2.595H25.689v3.528l-1.5-3.528H22.847l-1.268,2.94h-.4c-.717,0-.868-.437-.868-1.073,0-1.284.847-1.079,1.785-1.063v-.82Zm2.271.653.6,1.489h-1.23Zm-5.454-.647V12.31h.912V8.572Z" transform="translate(0.014 -2.25)" fill="#f3f3f3"/>
</svg>
