<svg xmlns="http://www.w3.org/2000/svg" width="31.066" height="24.17" viewBox="0 0 31.066 24.17">
  <path id="Caminho_2157" data-name="Caminho 2157" d="M306.2,437.193H280.307a2.591,2.591,0,0,0-2.587,2.593v18.986a2.589,2.589,0,0,0,2.587,2.591H306.2a2.589,2.589,0,0,0,2.59-2.59V439.784A2.591,2.591,0,0,0,306.2,437.193Zm-24.327,18.883H280.61V440.6h1.261Zm1.437-1.558h-.474V440.6h.474Zm1.078,0h-.474V440.6h.474Zm1.142,0h-.237V440.6h.237Zm1.057,0h-.475V440.6h.475Zm1.077,0h-.474V440.6h.474Zm1.143,0h-.237V440.6h.237Zm2.421,0h-1.753V440.6h1.753Zm1.178,0h-.474V440.6h.474Zm1.078,0h-.475V440.6h.475Zm1.142,0h-.237V440.6h.237Zm1.056,0h-.474V440.6h.474Zm1.078,0h-.474V440.6h.474Zm1.142,0h-.237V440.6h.237Zm2.422,0h-1.754V440.6h1.754Zm1.221,0h-.475V440.6h.475Zm1.077,0h-.474V440.6h.474Zm1.143,0h-.238V440.6h.238Zm1.056,0h-.475V440.6h.475Zm1.077,1.558h-.474V440.6h.474Z" transform="translate(-277.72 -437.193)" fill="#f3f3f3"/>
</svg>